<?xml version="1.0" encoding="UTF-8" standalone="no"?>
<!-- Created with Inkscape (http://www.inkscape.org/) -->
<svg
   xmlns="http://www.w3.org/2000/svg"
   xmlns:xlink="http://www.w3.org/1999/xlink"
   viewBox="0 0 210 297"
   id="svg2"
   version="1.1"
   width="210mm"
   height="297mm">
  <defs
    id="defs4">
    <g id="idea-1">
      <path
         d="m 6.181935,13.42832 0,0.39011 0.5558958,0.0586 0.1657934,0.13653 0,5.37367 -0.1657934,0.13653 -0.5558958,0.0487 0,0.39985 2.5746753,0 c 1.6579347,0 2.5454177,-0.68268 2.5454177,-1.9115 0,-0.95575 -0.653421,-1.55066 -1.8139759,-1.56041 0.9362459,-0.25357 1.4141209,-0.75094 1.4141209,-1.49214 0,-1.07278 -0.741194,-1.57992 -2.2333357,-1.57992 l -2.4869023,0 z m 1.5994196,2.96478 0,-2.5064 c 0.243814,-0.01 0.4291126,-0.0293 0.5558958,-0.0293 1.0727813,0 1.5994195,0.39986 1.5994195,1.18982 0,0.94599 -0.5656484,1.3556 -1.7847181,1.3556 -0.1170306,0 -0.243814,0 -0.3705972,-0.01 z m 0,3.09157 0,-2.60394 c 0.3803498,-0.039 0.7021842,-0.0585 0.9557507,-0.0585 1.082534,0 1.6091717,0.41936 1.6091717,1.30684 0,0.985 -0.6046584,1.38486 -1.911501,1.38486 -0.2048037,0 -0.41936,-0.01 -0.6534214,-0.0293 z"
         id="path4893"
         style="fill:#000000;fill-opacity:1;stroke:none;stroke-width:1px;stroke-linecap:butt;stroke-linejoin:miter;stroke-opacity:1" />
      <path
         d="m 12.038498,19.9723 2.350366,0 0,-0.3511 -0.682678,-0.0487 -0.165794,-0.15604 0,-2.78924 c 0.399855,-0.46811 0.741194,-0.71193 1.063029,-0.71193 0.204803,0 0.370597,0.078 0.49738,0.23406 l 0.312082,0 0,-0.83872 c -0.204804,-0.0878 -0.390102,-0.12678 -0.585154,-0.12678 -0.07802,0 -0.165793,0 -0.243813,0.0196 -0.351093,0.28283 -0.702185,0.5949 -1.043524,0.946 l 0,-0.91674 -0.370597,0 -1.131297,0.35109 0,0.30233 0.692432,0 0,3.53042 -0.175546,0.15605 -0.516886,0.0487 0,0.35109 z"
         id="path4895"
         style="fill:#000000;fill-opacity:1;stroke:none;stroke-width:1px;stroke-linecap:butt;stroke-linejoin:miter;stroke-opacity:1" />
      <path
         d="m 15.771899,19.9723 2.13581,0 0,-0.3511 -0.468123,-0.0487 -0.165793,-0.15604 0,-3.26711 c 0.41936,-0.21456 0.780205,-0.32184 1.092287,-0.32184 0.721689,0 0.985008,0.29258 0.985008,1.00452 l 0,2.58443 -0.165793,0.15604 -0.468123,0.0487 0,0.3511 2.13581,0 0,-0.3511 -0.526639,-0.0487 -0.165793,-0.15604 0,-2.75023 c 0,-0.97525 -0.468122,-1.48238 -1.316595,-1.48238 -0.41936,0 -0.916741,0.2243 -1.570162,0.58515 l 0,-0.53639 -0.370597,0 -1.131297,0.35109 0,0.30233 0.692432,0 0,3.53043 -0.165793,0.15604 -0.526639,0.0487 0,0.3511 z"
         id="path4897"
         style="fill:#000000;fill-opacity:1;stroke:none;stroke-width:1px;stroke-linecap:butt;stroke-linejoin:miter;stroke-opacity:1" />
      <path
         d="m 23.645719,15.18379 c -1.316595,0 -2.262594,0.98501 -2.262594,2.43814 0,1.44338 0.955751,2.43813 2.262594,2.43813 1.306843,0 2.272346,-0.99475 2.272346,-2.43813 0,-1.44338 -0.955751,-2.43814 -2.272346,-2.43814 z m 0,0.41936 c 0.789957,0 1.355606,0.7607 1.355606,2.01878 0,1.26783 -0.565649,2.01877 -1.355606,2.01877 -0.780204,0 -1.345853,-0.76069 -1.345853,-2.01877 0,-1.26783 0.555895,-2.01878 1.345853,-2.01878 z"
         id="path4899"
         style="fill:#000000;fill-opacity:1;stroke:none;stroke-width:1px;stroke-linecap:butt;stroke-linejoin:miter;stroke-opacity:1" />
      <path
         d="m 10.932711,22.01853 0.465088,0 0,0.09 -0.357679,0 0,0.2328 0.324345,0 0,0.09 -0.324345,0 0,0.37724 -0.107409,0 0,-0.78995 z"
         id="path4903"
         style="fill:#000000;fill-opacity:1;stroke:none;stroke-width:1px;stroke-linecap:butt;stroke-linejoin:miter;stroke-opacity:1" />
      <path
         d="m 11.672407,22.10637 0,0.29683 0.123811,0 q 0.07408,0 0.115346,-0.0391 0.0418,-0.0392 0.0418,-0.10953 0,-0.0704 -0.04127,-0.109 -0.04127,-0.0392 -0.115876,-0.0392 l -0.123811,0 z m -0.10688,-0.0879 0.230691,0 q 0.132278,0 0.200533,0.0603 0.06826,0.0598 0.06826,0.17568 0,0.11692 -0.06826,0.17671 -0.06773,0.0598 -0.200533,0.0598 l -0.123811,0 0,0.31746 -0.10688,0 0,-0.78996 z"
         id="path4905"
         style="fill:#000000;fill-opacity:1;stroke:none;stroke-width:1px;stroke-linecap:butt;stroke-linejoin:miter;stroke-opacity:1" />
      <path
         d="m 12.308397,22.43124 0,0.28943 0.126458,0 q 0.09312,0 0.132807,-0.0323 0.03968,-0.0328 0.03968,-0.10741 0,-0.0772 -0.0418,-0.11321 -0.0418,-0.0365 -0.13069,-0.0365 l -0.126458,0 z m 0,-0.32487 0,0.23809 0.124341,0 q 0.07725,0 0.111642,-0.0296 0.03492,-0.0297 0.03492,-0.0958 0,-0.0598 -0.0344,-0.0862 -0.03386,-0.0264 -0.112172,-0.0264 l -0.124341,0 z m -0.107409,-0.0879 0.233867,0 q 0.121166,0 0.186775,0.0524 0.06561,0.0524 0.06561,0.14815 0,0.0725 -0.03492,0.11431 -0.03439,0.0418 -0.103706,0.0524 0.07778,0.0117 0.121696,0.0666 0.04445,0.0545 0.04445,0.13916 0,0.10741 -0.07037,0.16243 -0.07037,0.0544 -0.209527,0.0544 l -0.233868,0 0,-0.78996 z"
         id="path4907"
         style="fill:#000000;fill-opacity:1;stroke:none;stroke-width:1px;stroke-linecap:butt;stroke-linejoin:miter;stroke-opacity:1" />
      <path
         d="m 13.376142,22.33811 q -0.03122,-0.0243 -0.06349,-0.0354 -0.03228,-0.011 -0.0709,-0.011 -0.09101,0 -0.139157,0.0571 -0.04815,0.0571 -0.04815,0.16508 l 0,0.2947 -0.09788,0 0,-0.59258 0.09788,0 0,0.11586 q 0.02434,-0.063 0.0746,-0.0963 0.05079,-0.0339 0.120108,-0.0339 0.03597,0 0.06719,0.009 0.03122,0.009 0.05979,0.028 l 0,0.0995 z"
         id="path4909"
         style="fill:#000000;fill-opacity:1;stroke:none;stroke-width:1px;stroke-linecap:butt;stroke-linejoin:miter;stroke-opacity:1" />
      <path
         d="m 13.972978,22.44129 0,0.36719 -0.09788,0 0,-0.36719 q 0,-0.08 -0.02804,-0.11746 -0.02804,-0.0375 -0.08783,-0.0375 -0.06825,0 -0.105293,0.0487 -0.03651,0.0481 -0.03651,0.13862 l 0,0.33492 -0.09736,0 0,-0.59259 0.09736,0 0,0.0889 q 0.02592,-0.0508 0.07037,-0.0767 0.04445,-0.0264 0.105293,-0.0264 0.09047,0 0.134924,0.0598 0.04497,0.0593 0.04497,0.1799 z"
         id="path4911"
         style="fill:#000000;fill-opacity:1;stroke:none;stroke-width:1px;stroke-linecap:butt;stroke-linejoin:miter;stroke-opacity:1" />
      <path
         d="m 14.394679,22.28415 q -0.07408,0 -0.112172,0.0576 -0.0381,0.0576 -0.0381,0.17092 0,0.1127 0.0381,0.1709 0.0381,0.0576 0.112172,0.0576 0.0746,0 0.1127,-0.0576 0.0381,-0.0582 0.0381,-0.1709 0,-0.11324 -0.0381,-0.17092 -0.0381,-0.0576 -0.1127,-0.0576 z m 0,-0.0825 q 0.123282,0 0.188363,0.0799 0.06561,0.0799 0.06561,0.23123 0,0.15186 -0.06508,0.23174 -0.06508,0.0794 -0.188892,0.0794 -0.123283,0 -0.188363,-0.0794 -0.06508,-0.0799 -0.06508,-0.23174 0,-0.15134 0.06508,-0.23123 0.06508,-0.0799 0.188363,-0.0799 z"
         id="path4913"
         style="fill:#000000;fill-opacity:1;stroke:none;stroke-width:1px;stroke-linecap:butt;stroke-linejoin:miter;stroke-opacity:1" />
      <path
         d="m 14.979346,22.64712 0.133335,0 0,0.16136 -0.133335,0 0,-0.16136 z"
         id="path4915"
         style="fill:#000000;fill-opacity:1;stroke:none;stroke-width:1px;stroke-linecap:butt;stroke-linejoin:miter;stroke-opacity:1" />
      <path
         d="m 15.826451,22.50744 q 0,-0.10953 -0.03598,-0.16614 -0.03545,-0.0572 -0.103706,-0.0572 -0.07143,0 -0.108996,0.0572 -0.03756,0.0566 -0.03756,0.16614 0,0.1095 0.03756,0.1672 0.0381,0.0571 0.110054,0.0571 0.06719,0 0.102648,-0.0576 0.03598,-0.0577 0.03598,-0.16666 z m 0.09736,0.26297 q 0,0.13333 -0.06296,0.20211 -0.06296,0.0688 -0.185189,0.0688 -0.04022,0 -0.08413,-0.007 -0.04392,-0.007 -0.08783,-0.0217 l 0,-0.0963 q 0.05185,0.0243 0.09418,0.036 0.04233,0.0117 0.07778,0.0117 0.07883,0 0.114818,-0.0429 0.03598,-0.0429 0.03598,-0.13597 l 0,-0.005 0,-0.0661 q -0.02328,0.0498 -0.0635,0.0741 -0.04021,0.0243 -0.09788,0.0243 -0.103706,0 -0.165612,-0.0831 -0.06191,-0.0831 -0.06191,-0.22223 0,-0.1397 0.06191,-0.22277 0.06191,-0.0831 0.165612,-0.0831 0.05714,0 0.09683,0.0228 0.03968,0.0228 0.06455,0.0703 l 0,-0.0767 0.09736,0 0,0.55241 z"
         id="path4917"
         style="fill:#000000;fill-opacity:1;stroke:none;stroke-width:1px;stroke-linecap:butt;stroke-linejoin:miter;stroke-opacity:1" />
      <path
         d="m 16.15979,22.2159 0.249211,0 0,0.51693 0.193125,0 0,0.0756 -0.483606,0 0,-0.0756 0.193124,0 0,-0.44128 -0.151854,0 0,-0.0756 z m 0.151854,-0.2307 0.09736,0 0,0.1233 -0.09736,0 0,-0.1233 z"
         id="path4919"
         style="fill:#000000;fill-opacity:1;stroke:none;stroke-width:1px;stroke-linecap:butt;stroke-linejoin:miter;stroke-opacity:1" />
      <path
         d="m 17.001075,22.04763 0,0.16827 0.221168,0 0,0.0756 -0.221168,0 0,0.3217 q 0,0.0656 0.02487,0.0915 0.02487,0.026 0.08677,0.026 l 0.109525,0 0,0.0777 -0.119049,0 q -0.109526,0 -0.154501,-0.0439 -0.04497,-0.0439 -0.04497,-0.15132 l 0,-0.32171 -0.158203,0 0,-0.0756 0.158203,0 0,-0.16826 0.09736,0 z"
         id="path4921"
         style="fill:#000000;fill-opacity:1;stroke:none;stroke-width:1px;stroke-linecap:butt;stroke-linejoin:miter;stroke-opacity:1" />
      <path
         d="m 17.88416,22.44129 0,0.36719 -0.09789,0 0,-0.36719 q 0,-0.08 -0.02804,-0.11746 -0.02804,-0.0375 -0.08783,-0.0375 -0.06826,0 -0.105294,0.0487 -0.03651,0.0481 -0.03651,0.13862 l 0,0.33492 -0.09736,0 0,-0.82329 0.09736,0 0,0.31958 q 0.02592,-0.0508 0.07037,-0.0767 0.04445,-0.0264 0.105293,-0.0264 0.09047,0 0.134924,0.0598 0.04497,0.0593 0.04497,0.17991 z"
         id="path4923"
         style="fill:#000000;fill-opacity:1;stroke:none;stroke-width:1px;stroke-linecap:butt;stroke-linejoin:miter;stroke-opacity:1" />
      <path
         d="m 18.083106,22.58415 0,-0.36721 0.09736,0 0,0.36721 q 0,0.0799 0.02804,0.11748 0.02858,0.0375 0.08783,0.0375 0.06878,0 0.105293,-0.0482 0.03651,-0.0487 0.03651,-0.13914 l 0,-0.33494 0.09788,0 0,0.59154 -0.09788,0 0,-0.0889 q -0.02592,0.0513 -0.0709,0.0777 -0.04445,0.0264 -0.104234,0.0264 -0.09101,0 -0.135453,-0.0592 -0.04445,-0.0598 -0.04445,-0.18042 z"
         id="path4925"
         style="fill:#000000;fill-opacity:1;stroke:none;stroke-width:1px;stroke-linecap:butt;stroke-linejoin:miter;stroke-opacity:1" />
      <path
         d="m 19.117516,22.51273 q 0,-0.11324 -0.03598,-0.17092 -0.03598,-0.0576 -0.106351,-0.0576 -0.0709,0 -0.10741,0.0582 -0.03651,0.0577 -0.03651,0.17038 0,0.11217 0.03651,0.17036 0.03651,0.0582 0.10741,0.0582 0.07037,0 0.106351,-0.0576 0.03598,-0.0576 0.03598,-0.1709 z m -0.286249,-0.22118 q 0.02328,-0.0434 0.06403,-0.0666 0.04127,-0.0233 0.09524,-0.0233 0.10688,0 0.168257,0.0825 0.06137,0.082 0.06137,0.22645 0,0.14657 -0.06191,0.23016 -0.06137,0.0831 -0.168786,0.0831 -0.05291,0 -0.09365,-0.0228 -0.04021,-0.0233 -0.06455,-0.0672 l 0,0.0746 -0.09736,0 0,-0.82329 0.09736,0 0,0.30636 z"
         id="path4927"
         style="fill:#000000;fill-opacity:1;stroke:none;stroke-width:1px;stroke-linecap:butt;stroke-linejoin:miter;stroke-opacity:1" />
      <path
         d="m 19.542391,22.64712 0.133336,0 0,0.16136 -0.133336,0 0,-0.16136 z"
         id="path4929"
         style="fill:#000000;fill-opacity:1;stroke:none;stroke-width:1px;stroke-linecap:butt;stroke-linejoin:miter;stroke-opacity:1" />
      <path
         d="m 20.070972,22.2159 0.249211,0 0,0.51693 0.193126,0 0,0.0756 -0.483608,0 0,-0.0756 0.193126,0 0,-0.44128 -0.151855,0 0,-0.0756 z m 0.151855,-0.2307 0.09736,0 0,0.1233 -0.09736,0 0,-0.1233 z"
         id="path4931"
         style="fill:#000000;fill-opacity:1;stroke:none;stroke-width:1px;stroke-linecap:butt;stroke-linejoin:miter;stroke-opacity:1" />
      <path
         d="m 20.913316,22.28415 q -0.07408,0 -0.112172,0.0576 -0.0381,0.0576 -0.0381,0.17092 0,0.1127 0.0381,0.1709 0.0381,0.0576 0.112172,0.0576 0.0746,0 0.1127,-0.0576 0.03809,-0.0582 0.03809,-0.1709 0,-0.11324 -0.03809,-0.17092 -0.0381,-0.0576 -0.1127,-0.0576 z m 0,-0.0825 q 0.123282,0 0.188363,0.0799 0.06561,0.0799 0.06561,0.23123 0,0.15186 -0.06508,0.23174 -0.06508,0.0794 -0.188892,0.0794 -0.123283,0 -0.188363,-0.0794 -0.06508,-0.0799 -0.06508,-0.23174 0,-0.15134 0.06508,-0.23123 0.06508,-0.0799 0.188363,-0.0799 z"
         id="path4933"
         style="fill:#000000;fill-opacity:1;stroke:none;stroke-width:1px;stroke-linecap:butt;stroke-linejoin:miter;stroke-opacity:1" />
      <path
         style="fill:#f54343;fill-opacity:1;stroke:#f54343;stroke-width:0.1;stroke-linecap:butt;stroke-linejoin:miter;stroke-miterlimit:4;stroke-dasharray:none;stroke-opacity:1"
         d="m 17.081331,7.282 c 0.06827,-0.5559 0.351092,-0.87773 0.789957,-0.87773 0.312083,0 0.575401,0.24382 0.72169,0.68268 0.06827,0.19505 0.156041,0.51689 0.243814,0.88749 l -2.252842,4.86652 0.916741,0 1.657935,-3.49141 c 0.312082,1.90174 0.468123,2.59418 0.643669,2.97452 0.214556,0.41936 0.526638,0.64368 0.887483,0.64368 0.38035,0 0.682678,-0.23406 0.848472,-0.66318 0.107278,-0.26332 0.146289,-0.52664 0.156041,-0.98501 l -0.204804,0 c -0.07802,0.50714 -0.302329,0.78996 -0.653421,0.78996 -0.292577,0 -0.546144,-0.1853 -0.702185,-0.52664 -0.126783,-0.25357 -0.19505,-0.50713 -0.331586,-1.22882 l -0.26332,-1.25808 c -0.0097,-0.0293 -0.01951,-0.0975 -0.03901,-0.19506 C 19.275656,7.64284 18.924564,6.45304 18.690503,6.10194 18.475946,5.78986 18.18337,5.62407 17.861535,5.62407 c -0.594906,0 -0.906988,0.50713 -1.014266,1.65793 l 0.234061,0 z"
         id="path4937" />
      <path
         d="m 11.915336,13.00614 2.467398,0 0,-0.39986 -0.624164,-0.0487 -0.165794,-0.13654 0,-5.37366 0.165794,-0.13653 0.624164,-0.0586 0,-0.39009 -2.467398,0 0,0.39009 0.624164,0.0586 0.165794,0.13653 0,5.37366 -0.165794,0.13654 -0.624164,0.0487 0,0.39986 z"
         id="path4941"
         style="fill:#000000;fill-opacity:1;stroke:none;stroke-width:1px;stroke-linecap:butt;stroke-linejoin:miter;stroke-opacity:1" />
    </g>
    <g id="button-base">
      <polygon points="16,0 16.2,1.5 15.8,1.5" style="fill:#000000;opacity:1"/>
      <circle
         cy="16"
         cx="16"
         r="16"
         style="fill:none;stroke:#000000;stroke-width:0.1;stroke-miterlimit:4;stroke-dasharray:none"
        />
    </g>
    <g id="button-devel">
      <use xlink:href="#button-base" />
      <circle
         cx="16"
         cy="16"
         r="12.5"
         style="fill:none;stroke:#000000;stroke-width:0.1;opacity:0.5;stroke-miterlimit:4;stroke-dasharray:0.2, 1.6;stroke-dashoffset:0"
        />
    </g>
    <g id="button">
      <use xlink:href="#button-devel" />
      <use xlink:href="#idea-1" transform="translate(0,0.75)" />
    </g>
    <g id="row" transform="translate(8.7,0)">
      <use xlink:href="#button" transform="translate(0.1,0)" />
      <use xlink:href="#button" transform="translate(32.3,0)" />
      <use xlink:href="#button" transform="translate(64.5,0)" />
      <use xlink:href="#button" transform="translate(96.7,0)" />
      <use xlink:href="#button" transform="translate(128.9,0)" />
      <use xlink:href="#button" transform="translate(161.1,0)" />
    </g>
  </defs>
  <rect width="100%" height="100%" style="fill:none;stroke:#000000;stroke-width:0.1" />
  <g transform="translate(0,4.05)">
    <use xlink:href="#row" transform="translate(0,0.1)" />
    <use xlink:href="#row" transform="translate(0,32.3)" />
    <use xlink:href="#row" transform="translate(0,64.5)" />
    <use xlink:href="#row" transform="translate(0,96.7)" />
    <use xlink:href="#row" transform="translate(0,128.9)" />
    <use xlink:href="#row" transform="translate(0,161.1)" />
    <use xlink:href="#row" transform="translate(0,193.3)" />
    <use xlink:href="#row" transform="translate(0,225.5)" />
    <use xlink:href="#row" transform="translate(0,257.7)" />
  </g>
</svg>
