<?xml version="1.0" encoding="UTF-8" standalone="no"?>
<!-- Created with Inkscape (http://www.inkscape.org/) -->
<svg
   xmlns="http://www.w3.org/2000/svg"
   xmlns:xlink="http://www.w3.org/1999/xlink"
   viewBox="0 0 210 297"
   id="svg2"
   version="1.1"
   width="210mm"
   height="297mm">
  <defs
    id="defs4">
    <g id="idea-1">
      <path
         d="m 6.131935,14.519671 0,0.39011 0.5558958,0.0586 0.1657934,0.13653 0,5.37367 -0.1657934,0.13653 -0.5558958,0.0487 0,0.39985 2.5746753,0 c 1.6579347,0 2.5454177,-0.68268 2.5454177,-1.9115 0,-0.95575 -0.653421,-1.55066 -1.8139759,-1.56041 0.9362459,-0.25357 1.4141209,-0.75094 1.4141209,-1.49214 0,-1.07278 -0.741194,-1.57992 -2.2333357,-1.57992 l -2.4869023,0 z m 1.5994196,2.96478 0,-2.5064 c 0.243814,-0.01 0.4291126,-0.0293 0.5558958,-0.0293 1.0727813,0 1.5994195,0.39986 1.5994195,1.18982 0,0.94599 -0.5656484,1.3556 -1.7847181,1.3556 -0.1170306,0 -0.243814,0 -0.3705972,-0.01 z m 0,3.09157 0,-2.60394 c 0.3803498,-0.039 0.7021842,-0.0585 0.9557507,-0.0585 1.082534,0 1.6091717,0.41936 1.6091717,1.30684 0,0.985 -0.6046584,1.38486 -1.911501,1.38486 -0.2048037,0 -0.41936,-0.01 -0.6534214,-0.0293 z"
         style="fill:#000000;fill-opacity:1;stroke:none;stroke-width:1px;stroke-linecap:butt;stroke-linejoin:miter;stroke-opacity:1" />
      <path
         d="m 11.988498,21.063651 2.350366,0 0,-0.3511 -0.682678,-0.0487 -0.165794,-0.15604 0,-2.78924 c 0.399855,-0.46811 0.741194,-0.71193 1.063029,-0.71193 0.204803,0 0.370597,0.078 0.49738,0.23406 l 0.312082,0 0,-0.83872 c -0.204804,-0.0878 -0.390102,-0.12678 -0.585154,-0.12678 -0.07802,0 -0.165793,0 -0.243813,0.0196 -0.351093,0.28283 -0.702185,0.5949 -1.043524,0.946 l 0,-0.91674 -0.370597,0 -1.131297,0.35109 0,0.30233 0.692432,0 0,3.53042 -0.175546,0.15605 -0.516886,0.0487 0,0.35109 z"
         style="fill:#000000;fill-opacity:1;stroke:none;stroke-width:1px;stroke-linecap:butt;stroke-linejoin:miter;stroke-opacity:1" />
      <path
         d="m 15.721899,21.063651 2.13581,0 0,-0.3511 -0.468123,-0.0487 -0.165793,-0.15604 0,-3.26711 c 0.41936,-0.21456 0.780205,-0.32184 1.092287,-0.32184 0.721689,0 0.985008,0.29258 0.985008,1.00452 l 0,2.58443 -0.165793,0.15604 -0.468123,0.0487 0,0.3511 2.13581,0 0,-0.3511 -0.526639,-0.0487 -0.165793,-0.15604 0,-2.75023 c 0,-0.97525 -0.468122,-1.48238 -1.316595,-1.48238 -0.41936,0 -0.916741,0.2243 -1.570162,0.58515 l 0,-0.53639 -0.370597,0 -1.131297,0.35109 0,0.30233 0.692432,0 0,3.53043 -0.165793,0.15604 -0.526639,0.0487 0,0.3511 z"
         style="fill:#000000;fill-opacity:1;stroke:none;stroke-width:1px;stroke-linecap:butt;stroke-linejoin:miter;stroke-opacity:1" />
      <path
         d="m 23.595719,16.275141 c -1.316595,0 -2.262594,0.98501 -2.262594,2.43814 0,1.44338 0.955751,2.43813 2.262594,2.43813 1.306843,0 2.272346,-0.99475 2.272346,-2.43813 0,-1.44338 -0.955751,-2.43814 -2.272346,-2.43814 z m 0,0.41936 c 0.789957,0 1.355606,0.7607 1.355606,2.01878 0,1.26783 -0.565649,2.01877 -1.355606,2.01877 -0.780204,0 -1.345853,-0.76069 -1.345853,-2.01877 0,-1.26783 0.555895,-2.01878 1.345853,-2.01878 z"
         style="fill:#000000;fill-opacity:1;stroke:none;stroke-width:1px;stroke-linecap:butt;stroke-linejoin:miter;stroke-opacity:1" />
      <path
         style="fill:#f54343;fill-opacity:1;stroke:#f54343;stroke-width:0.1;stroke-linecap:butt;stroke-linejoin:miter;stroke-miterlimit:4;stroke-dasharray:none;stroke-opacity:1"
         d="m 17.031331,8.3733506 c 0.06827,-0.5559 0.351092,-0.87773 0.789957,-0.87773 0.312083,0 0.575401,0.24382 0.72169,0.68268 0.06827,0.19505 0.156041,0.51689 0.243814,0.88749 l -2.252842,4.8665204 0.916741,0 1.657935,-3.49141 c 0.312082,1.90174 0.468123,2.59418 0.643669,2.97452 0.214556,0.41936 0.526638,0.64368 0.887483,0.64368 0.38035,0 0.682678,-0.23406 0.848472,-0.66318 0.107278,-0.26332 0.146289,-0.52664 0.156041,-0.98501 l -0.204804,0 c -0.07802,0.50714 -0.302329,0.78996 -0.653421,0.78996 -0.292577,0 -0.546144,-0.1853 -0.702185,-0.52664 -0.126783,-0.25357 -0.19505,-0.50713 -0.331586,-1.22882 l -0.26332,-1.25808 c -0.0097,-0.0293 -0.01951,-0.0975 -0.03901,-0.1950604 -0.224309,-1.25808 -0.575401,-2.44788 -0.809462,-2.79898 -0.214557,-0.31208 -0.507133,-0.47787 -0.828968,-0.47787 -0.594906,0 -0.906988,0.50713 -1.014266,1.65793 l 0.234061,0 z" />
      <path
         d="m 11.865336,14.097491 2.467398,0 0,-0.39986 -0.624164,-0.0487 -0.165794,-0.13654 0,-5.3736604 0.165794,-0.13653 0.624164,-0.0586 0,-0.39009 -2.467398,0 0,0.39009 0.624164,0.0586 0.165794,0.13653 0,5.3736604 -0.165794,0.13654 -0.624164,0.0487 0,0.39986 z"
         style="fill:#000000;fill-opacity:1;stroke:none;stroke-width:1px;stroke-linecap:butt;stroke-linejoin:miter;stroke-opacity:1" />
      <g id="FPBurl"
         transform="translate(-0.04999999,1.0913506)"
         style="fill:#000000;fill-opacity:1;stroke:none;stroke-width:1px;stroke-linecap:butt;stroke-linejoin:miter;stroke-opacity:1">
        <path d="m 10.390007,22.786163 0.591179,0 0,0.117134 -0.451997,0 0,0.303168 0.407899,0 0,0.117133 -0.407899,0 0,0.491271 -0.139182,0 0,-1.028706 z" />
        <path d="m 11.342232,22.900541 0,0.386539 0.175011,0 q 0.09715,0 0.150206,-0.0503 0.05305,-0.0503 0.05305,-0.143316 0,-0.09233 -0.05305,-0.142627 -0.05305,-0.0503 -0.150206,-0.0503 l -0.175011,0 z m -0.139182,-0.114378 0.314193,0 q 0.172943,0 0.261138,0.07855 0.08888,0.07786 0.08888,0.228754 0,0.152273 -0.08888,0.230132 -0.08819,0.07786 -0.261138,0.07786 l -0.175011,0 0,0.413412 -0.139182,0 0,-1.028706 z" />
        <path d="m 12.193859,23.323598 0,0.376894 0.223242,0 q 0.112311,0 0.166054,-0.04617 0.05443,-0.04685 0.05443,-0.142626 0,-0.09646 -0.05443,-0.141938 -0.05374,-0.04616 -0.166054,-0.04616 l -0.223242,0 z m 0,-0.423057 0,0.310058 0.206017,0 q 0.101975,0 0.151584,-0.0379 0.0503,-0.03858 0.0503,-0.117133 0,-0.07786 -0.0503,-0.116444 -0.04961,-0.03859 -0.151584,-0.03859 l -0.206017,0 z m -0.139182,-0.114378 0.355534,0 q 0.159164,0 0.245291,0.06615 0.08613,0.06615 0.08613,0.188102 0,0.0944 -0.0441,0.150207 -0.0441,0.05581 -0.129535,0.06959 0.102663,0.02205 0.159163,0.09233 0.05719,0.06959 0.05719,0.174322 0,0.137804 -0.09371,0.212907 -0.09371,0.0751 -0.26665,0.0751 l -0.369315,0 0,-1.028706 z" />
        <path d="m 13.463721,23.161679 q -0.02136,-0.0124 -0.04685,-0.01791 -0.0248,-0.0062 -0.05512,-0.0062 -0.107487,0 -0.165365,0.07028 -0.05719,0.06959 -0.05719,0.200505 l 0,0.406521 -0.127468,0 0,-0.771701 0.127468,0 0,0.119889 q 0.03996,-0.07028 0.104042,-0.104042 0.06408,-0.03445 0.155719,-0.03445 0.01309,0 0.02894,0.0021 0.01585,0.0014 0.03514,0.0048 l 6.89e-4,0.130225 z" />
        <path d="m 14.214752,23.349092 0,0.465777 -0.126779,0 0,-0.461643 q 0,-0.109554 -0.04272,-0.163986 -0.04272,-0.05443 -0.128158,-0.05443 -0.102664,0 -0.16192,0.06546 -0.05926,0.06546 -0.05926,0.178456 l 0,0.436149 -0.127469,0 0,-0.771701 0.127469,0 0,0.119889 q 0.04547,-0.06959 0.106798,-0.104042 0.06201,-0.03445 0.142627,-0.03445 0.13298,0 0.201193,0.08268 0.06821,0.08199 0.06821,0.241846 z" />
        <path d="m 14.768034,23.132051 q -0.101974,0 -0.16123,0.07993 -0.05926,0.07924 -0.05926,0.21773 0,0.138493 0.05857,0.218419 0.05926,0.07924 0.161919,0.07924 0.101286,0 0.160542,-0.07993 0.05926,-0.07993 0.05926,-0.21773 0,-0.137115 -0.05926,-0.217041 -0.05926,-0.08061 -0.160542,-0.08061 z m 0,-0.107487 q 0.165365,0 0.259761,0.107487 0.0944,0.107487 0.0944,0.297656 0,0.189481 -0.0944,0.297657 -0.0944,0.107486 -0.259761,0.107486 -0.166053,0 -0.260449,-0.107486 -0.09371,-0.108176 -0.09371,-0.297657 0,-0.190169 0.09371,-0.297656 0.0944,-0.107487 0.260449,-0.107487 z" />
        <path d="m 15.376471,23.673758 c -0.04374,0 -0.08043,0.03528 -0.08043,0.07902 0,0.04374 0.03528,0.08043 0.07902,0.08043 0.04375,0 0.07902,-0.03669 0.07902,-0.08043 0,-0.04233 -0.03669,-0.07902 -0.07761,-0.07902 z" />
        <path d="m 16.192237,23.420061 q 0,-0.137804 -0.05719,-0.213596 -0.0565,-0.07579 -0.159163,-0.07579 -0.101975,0 -0.159163,0.07579 -0.0565,0.07579 -0.0565,0.213596 0,0.137115 0.0565,0.212907 0.05719,0.07579 0.159163,0.07579 0.102664,0 0.159163,-0.07579 0.05719,-0.07579 0.05719,-0.212907 z m 0.12678,0.299034 q 0,0.19706 -0.08751,0.292833 -0.08751,0.09646 -0.268028,0.09646 -0.06683,0 -0.126091,-0.01034 -0.05926,-0.0096 -0.115066,-0.03032 l 0,-0.123334 q 0.05581,0.03032 0.110243,0.04479 0.05443,0.01447 0.110932,0.01447 0.124713,0 0.186724,-0.06546 0.06201,-0.06477 0.06201,-0.19637 l 0,-0.0627 q -0.03927,0.06821 -0.100597,0.101975 -0.06132,0.03376 -0.146761,0.03376 -0.141938,0 -0.228754,-0.108176 -0.08682,-0.108176 -0.08682,-0.286632 0,-0.179145 0.08682,-0.287321 0.08682,-0.108176 0.228754,-0.108176 0.08544,0 0.146761,0.03376 0.06132,0.03376 0.100597,0.101975 l 0,-0.117133 0.12678,0 0,0.675927 z" />
        <path d="m 16.580155,23.043168 0.126779,0 0,0.771701 -0.126779,0 0,-0.771701 z m 0,-0.300413 0.126779,0 0,0.160542 -0.126779,0 0,-0.160542 z" />
        <path d="m 17.096919,22.824059 0,0.219109 0.261138,0 0,0.09853 -0.261138,0 0,0.418924 q 0,0.09439 0.02549,0.121267 0.02618,0.02687 0.10542,0.02687 l 0.130224,0 0,0.106109 -0.130224,0 q -0.146762,0 -0.202572,-0.05443 -0.05581,-0.05512 -0.05581,-0.199815 l 0,-0.418924 -0.09302,0 0,-0.09853 0.09302,0 0,-0.219109 0.127469,0 z" />
        <path d="m 18.166966,23.349092 0,0.465777 -0.12678,0 0,-0.461643 q 0,-0.109554 -0.04272,-0.163986 -0.04272,-0.05443 -0.128157,-0.05443 -0.102664,0 -0.16192,0.06546 -0.05926,0.06546 -0.05926,0.178456 l 0,0.436149 -0.127469,0 0,-1.072114 0.127469,0 0,0.420302 q 0.04547,-0.06959 0.106798,-0.104042 0.06201,-0.03445 0.142627,-0.03445 0.13298,0 0.201193,0.08268 0.06821,0.08199 0.06821,0.241846 z" />
        <path d="m 18.408122,23.510322 0,-0.467154 0.12678,0 0,0.462331 q 0,0.109554 0.04272,0.164676 0.04272,0.05443 0.128157,0.05443 0.102664,0 0.16192,-0.06546 0.05994,-0.06546 0.05994,-0.178456 l 0,-0.437527 0.126779,0 0,0.771701 -0.126779,0 0,-0.118511 q -0.04616,0.07028 -0.107487,0.104731 -0.06063,0.03376 -0.141249,0.03376 -0.132981,0 -0.201883,-0.08268 -0.0689,-0.08268 -0.0689,-0.241846 z m 0.319016,-0.485758 0,0 z" />
        <path d="m 19.87091,23.429707 q 0,-0.139871 -0.05788,-0.219108 -0.05719,-0.07993 -0.157785,-0.07993 -0.100597,0 -0.158474,0.07993 -0.05719,0.07924 -0.05719,0.219108 0,0.139871 0.05719,0.219797 0.05788,0.07924 0.158474,0.07924 0.100597,0 0.157785,-0.07924 0.05788,-0.07993 0.05788,-0.219797 z m -0.431326,-0.269406 q 0.03996,-0.0689 0.100597,-0.101975 0.06132,-0.03376 0.146072,-0.03376 0.14056,0 0.228065,0.111621 0.08819,0.111621 0.08819,0.293522 0,0.181901 -0.08819,0.293522 -0.08751,0.111621 -0.228065,0.111621 -0.08475,0 -0.146072,-0.03307 -0.06063,-0.03376 -0.100597,-0.102664 l 0,0.115755 -0.127468,0 0,-1.072114 0.127468,0 0,0.417546 z" />
        <path d="m 20.257482,23.673758 c -0.04374,0 -0.08043,0.03528 -0.08043,0.07902 0,0.04374 0.03528,0.08043 0.07902,0.08043 0.04375,0 0.07902,-0.03669 0.07902,-0.08043 0,-0.04233 -0.03669,-0.07902 -0.07761,-0.07902 z" />
        <path d="m 20.565441,23.043168 0.12678,0 0,0.771701 -0.12678,0 0,-0.771701 z m 0,-0.300413 0.12678,0 0,0.160542 -0.12678,0 0,-0.160542 z" />
        <path d="m 21.255838,23.132051 q -0.101975,0 -0.161231,0.07993 -0.05926,0.07924 -0.05926,0.21773 0,0.138493 0.05857,0.218419 0.05926,0.07924 0.16192,0.07924 0.101286,0 0.160541,-0.07993 0.05926,-0.07993 0.05926,-0.21773 0,-0.137115 -0.05926,-0.217041 -0.05926,-0.08061 -0.160541,-0.08061 z m 0,-0.107487 q 0.165365,0 0.25976,0.107487 0.0944,0.107487 0.0944,0.297656 0,0.189481 -0.0944,0.297657 -0.0944,0.107486 -0.25976,0.107486 -0.166054,0 -0.260449,-0.107486 -0.09371,-0.108176 -0.09371,-0.297657 0,-0.190169 0.09371,-0.297656 0.0944,-0.107487 0.260449,-0.107487 z" />
      </g>
    </g>
    <g id="button-base">
      <polygon points="16,0 16.2,1.5 15.8,1.5" style="fill:#000000;opacity:1"/>
      <circle
         cy="16"
         cx="16"
         r="16"
         style="fill:none;stroke:#000000;stroke-width:0.1;stroke-miterlimit:4;stroke-dasharray:none"
        />
    </g>
    <g id="button-devel">
      <use xlink:href="#button-base" />
      <circle
         cx="16"
         cy="16"
         r="12.5"
         style="fill:none;stroke:#000000;stroke-width:0.1;opacity:0.5;stroke-miterlimit:4;stroke-dasharray:0.2, 1.6;stroke-dashoffset:0"
        />
    </g>
    <g id="button">
      <use xlink:href="#button-devel" />
      <!-- vyvazene na oko, ked to bolo na stred tak to nevyzeralo na stred -->
      <use xlink:href="#idea-1" transform="translate(0.2,0.25)" />
    </g>
    <g id="row" transform="translate(8.7,0)">
      <use xlink:href="#button" transform="translate(0.1,0)" />
      <use xlink:href="#button" transform="translate(32.3,0)" />
      <use xlink:href="#button" transform="translate(64.5,0)" />
      <use xlink:href="#button" transform="translate(96.7,0)" />
      <use xlink:href="#button" transform="translate(128.9,0)" />
      <use xlink:href="#button" transform="translate(161.1,0)" />
    </g>
  </defs>
  <rect width="100%" height="100%" style="fill:none;stroke:#000000;stroke-width:0.1" />
  <g transform="translate(0,4.05)">
    <use xlink:href="#row" transform="translate(0,0.1)" />
    <use xlink:href="#row" transform="translate(0,32.3)" />
    <use xlink:href="#row" transform="translate(0,64.5)" />
    <use xlink:href="#row" transform="translate(0,96.7)" />
    <use xlink:href="#row" transform="translate(0,128.9)" />
    <use xlink:href="#row" transform="translate(0,161.1)" />
    <use xlink:href="#row" transform="translate(0,193.3)" />
    <use xlink:href="#row" transform="translate(0,225.5)" />
    <use xlink:href="#row" transform="translate(0,257.7)" />
  </g>
</svg>
