<?xml version="1.0" encoding="UTF-8" standalone="no"?>
<!-- Created with Inkscape (http://www.inkscape.org/) -->

<svg
   xmlns:dc="http://purl.org/dc/elements/1.1/"
   xmlns:cc="http://creativecommons.org/ns#"
   xmlns:rdf="http://www.w3.org/1999/02/22-rdf-syntax-ns#"
   xmlns:svg="http://www.w3.org/2000/svg"
   xmlns="http://www.w3.org/2000/svg"
   xmlns:xlink="http://www.w3.org/1999/xlink"
   xmlns:sodipodi="http://sodipodi.sourceforge.net/DTD/sodipodi-0.dtd"
   xmlns:inkscape="http://www.inkscape.org/namespaces/inkscape"
   width="960"
   height="150"
   viewBox="0 0 960.00001 150"
   id="svg2"
   version="1.1"
   inkscape:version="0.91 r13725"
   sodipodi:docname="fpb-banner.svg"
   inkscape:export-filename="/home/matej.kollar/fpb-ban.png"
   inkscape:export-xdpi="90"
   inkscape:export-ydpi="90">
  <sodipodi:namedview
     id="base"
     pagecolor="#aaaaaa"
     bordercolor="#666666"
     borderopacity="1.0"
     inkscape:pageopacity="1"
     inkscape:pageshadow="2"
     inkscape:zoom="0.69449541"
     inkscape:cx="418.96067"
     inkscape:cy="115.58055"
     inkscape:document-units="px"
     inkscape:current-layer="layer1"
     showgrid="false"
     units="px"
     inkscape:window-width="1366"
     inkscape:window-height="752"
     inkscape:window-x="0"
     inkscape:window-y="0"
     inkscape:window-maximized="0"
     showguides="true"
     borderlayer="true"
     inkscape:showpageshadow="false" />
  <defs
     id="defs4">
    <linearGradient
       inkscape:collect="always"
       id="linearGradient8693">
      <stop
         style="stop-color:#000000;stop-opacity:1;"
         offset="0"
         id="stop8695" />
      <stop
         style="stop-color:#000000;stop-opacity:0"
         offset="1"
         id="stop8697" />
    </linearGradient>
    <linearGradient
       id="grey-gradient-4"
       x1="0"
       y1="0"
       x2="1"
       y2="0">
      <stop
         offset="0%"
         style="stop-color:rgb(100,100,100);stop-opacity:1"
         id="stop8689" />
      <stop
         offset="100%"
         style="stop-color:rgb(0,0,0);stop-opacity:1"
         id="stop8691" />
    </linearGradient>
    <linearGradient
       gradientTransform="translate(669.09368,1396.0994)"
       y2="96.620499"
       x2="-675.07538"
       y1="96.4384"
       x1="-675.07538"
       gradientUnits="userSpaceOnUse"
       id="SVGID_1_">
      <stop
         id="stop6842"
         style="stop-color:#F29100"
         offset="0" />
      <stop
         id="stop6844"
         style="stop-color:#EC670F"
         offset="1" />
    </linearGradient>
    <linearGradient
       gradientTransform="translate(669.09368,1396.0994)"
       y2="142.99719"
       x2="-696.72449"
       y1="97.700996"
       x1="-696.72449"
       gradientUnits="userSpaceOnUse"
       id="SVGID_2_">
      <stop
         id="stop6851"
         style="stop-color:#F29100"
         offset="0" />
      <stop
         id="stop6853"
         style="stop-color:#EC670F"
         offset="1" />
    </linearGradient>
    <linearGradient
       gradientTransform="translate(669.09368,1396.0994)"
       y2="142.9646"
       x2="-675.21912"
       y1="-1.2802"
       x1="-675.21912"
       gradientUnits="userSpaceOnUse"
       id="SVGID_3_">
      <stop
         id="stop6862"
         style="stop-color:#F29100"
         offset="0" />
      <stop
         id="stop6864"
         style="stop-color:#EC670F"
         offset="1" />
    </linearGradient>
    <linearGradient
       gradientTransform="translate(669.09368,1396.0994)"
       y2="141.9687"
       x2="-735.12903"
       y1="90.834396"
       x1="-735.12903"
       gradientUnits="userSpaceOnUse"
       id="SVGID_4_">
      <stop
         id="stop6871"
         style="stop-color:#F29100"
         offset="0" />
      <stop
         id="stop6873"
         style="stop-color:#EC670F"
         offset="1" />
    </linearGradient>
    <linearGradient
       y2="0"
       x2="1"
       y1="0"
       x1="0"
       id="grey-gradient">
      <stop
         id="stop7674"
         style="stop-color:rgb(100,100,100);stop-opacity:1"
         offset="0%" />
      <stop
         id="stop7676"
         style="stop-color:rgb(0,0,0);stop-opacity:1"
         offset="100%" />
    </linearGradient>
    <linearGradient
       y2="0"
       x2="1"
       y1="0"
       x1="0"
       id="red-gradient">
      <stop
         id="stop7669"
         style="stop-color:rgb(160,0,0);stop-opacity:1"
         offset="0%" />
      <stop
         id="stop7671"
         style="stop-color:rgb(255,0,0);stop-opacity:1"
         offset="100%" />
    </linearGradient>
    <clipPath
       id="clip1-2">
      <path
         inkscape:connector-curvature="0"
         d="m 0,340.15625 481.89062,0 L 481.89062,0 0,0 0,340.15625 Z m 0,0"
         id="path4575" />
    </clipPath>
    <linearGradient
       id="linearGradient8159"
       gradientUnits="userSpaceOnUse"
       x1="-675.07538"
       y1="96.4384"
       x2="-675.07538"
       y2="96.620499"
       gradientTransform="translate(758,1.28)">
      <stop
         offset="0"
         style="stop-color:#F29100"
         id="stop8161" />
      <stop
         offset="1"
         style="stop-color:#EC670F"
         id="stop8163" />
    </linearGradient>
    <linearGradient
       gradientTransform="translate(758,1.28)"
       y2="141.9687"
       x2="-735.12903"
       y1="90.834396"
       x1="-735.12903"
       gradientUnits="userSpaceOnUse"
       id="linearGradient8184">
      <stop
         id="stop8186"
         style="stop-color:#F29100"
         offset="0" />
      <stop
         id="stop8188"
         style="stop-color:#EC670F"
         offset="1" />
    </linearGradient>
    <linearGradient
       gradientTransform="translate(758,1.28)"
       y2="142.99719"
       x2="-696.72449"
       y1="97.700996"
       x1="-696.72449"
       gradientUnits="userSpaceOnUse"
       id="linearGradient8167">
      <stop
         id="stop8169"
         style="stop-color:#F29100"
         offset="0" />
      <stop
         id="stop8171"
         style="stop-color:#EC670F"
         offset="1" />
    </linearGradient>
    <linearGradient
       id="linearGradient8176"
       gradientUnits="userSpaceOnUse"
       x1="-675.21912"
       y1="-1.2802"
       x2="-675.21912"
       y2="142.9646"
       gradientTransform="translate(758,1.28)">
      <stop
         offset="0"
         style="stop-color:#F29100"
         id="stop8178" />
      <stop
         offset="1"
         style="stop-color:#EC670F"
         id="stop8180" />
    </linearGradient>
    <linearGradient
       inkscape:collect="always"
       xlink:href="#linearGradient8693"
       id="linearGradient8699"
       x1="332.86734"
       y1="278.9205"
       x2="-2.6280446"
       y2="297.63913"
       gradientUnits="userSpaceOnUse" />
    <linearGradient
       inkscape:collect="always"
       xlink:href="#linearGradient8693"
       id="linearGradient8710"
       gradientUnits="userSpaceOnUse"
       x1="332.86734"
       y1="278.9205"
       x2="-2.6280446"
       y2="297.63913" />
    <linearGradient
       inkscape:collect="always"
       xlink:href="#linearGradient8693"
       id="linearGradient8712"
       gradientUnits="userSpaceOnUse"
       x1="332.86734"
       y1="278.9205"
       x2="-2.6280446"
       y2="297.63913" />
  </defs>
  <metadata
     id="metadata7">
    <rdf:RDF>
      <cc:Work
         rdf:about="">
        <dc:format>image/svg+xml</dc:format>
        <dc:type
           rdf:resource="http://purl.org/dc/dcmitype/StillImage" />
        <dc:title></dc:title>
      </cc:Work>
    </rdf:RDF>
  </metadata>
  <g
     transform="translate(0,-902.36216)"
     id="layer1"
     inkscape:groupmode="layer"
     inkscape:label="Layer 1">
    <g
       id="g2993"
       transform="matrix(0.35772263,0,0,0.35772263,2.6560565,671.93868)">
      <path
         style="fill:#000000"
         d="m 172.09375,7.8125 c -15.60211,0.035106 -30.75901,5.776125 -43.78125,17 -11.54133,9.94785 -12.35783,13.65583 -2.15625,9.75 3.33404,-1.27636 9.98644,-2.3125 14.8125,-2.3125 7.46002,0 9.61815,0.8612 14.375,5.78125 4.41125,4.56289 5.46515,7.18012 5,12.34375 -0.56749,6.29944 -0.84184,6.52156 -7.3125,6.03125 -8.39842,-0.63638 -11.09267,-2.87828 -7.8125,-6.53125 3.06237,-3.41033 0.59106,-3.62581 -10.25,-0.84375 -8.51561,2.18534 -10.6659,1.22546 -6.84375,-3.03125 2.40682,-2.6802 2.17564,-2.83157 -2.15625,-1.59375 -2.6449,0.75572 -9.56951,4.48198 -15.40625,8.28125 -5.90736,3.84535 -10.920815,6.05343 -11.3125,4.96875 -0.386541,-1.07171 2.53817,-8.35323 6.5,-16.15625 3.96184,-7.80271 6.83197,-14.51514 6.375,-14.9375 -0.45694,-0.42231 -4.03937,3.81902 -7.9375,9.4375 -9.561672,13.77975 -16.180325,21.15865 -17.71875,19.75 -0.700094,-0.64083 0.537775,-6.56771 2.75,-13.1875 4.583421,-13.71447 4.126091,-17.22026 -0.75,-5.78125 C 83.072151,49.44179 71.004198,66.96465 59.875,78.3125 54.102917,84.19753 47.649548,92.71516 45.5,97.21875 41.621219,105.3466 34.462068,111.48241 26.125,113.875 c -2.387862,0.68518 -4.34375,2.33829 -4.34375,3.65625 0,2.35294 10.571127,11.625 13.25,11.625 0.751004,0 2.900534,-2.40124 4.78125,-5.34375 3.588321,-5.61423 10.9375,-7.37689 10.9375,-2.625 0,5.2721 -11.982455,24.55188 -20.4375,32.90625 -7.789652,7.69661 -8.129767,8.37311 -3.71875,7.59375 8.838864,-1.56155 5.959608,4.69287 -9.875,21.3125 -3.448557,3.61954 -7.6893647,9.22202 -9.40625,12.46875 -2.3645024,4.47064 0.7592608,2.23116 12.90625,-9.25 16.847955,-15.92459 17.725939,-17.39971 26.6875,-46.03125 3.206389,-10.24437 5.722036,-14.53765 11.8125,-20 8.503022,-7.6263 14.516956,-10.19662 17.46875,-7.46875 2.818086,2.60447 -1.489202,9.05565 -6.90625,10.3125 -2.48193,0.57572 -6.384242,3.34684 -8.65625,6.1875 L 56.5,134.40625 60.84375,137 c 2.397064,1.43303 6.842274,3.18538 9.875,3.875 5.162453,1.17396 5.368295,0.98775 3.3125,-2.5625 -3.55686,-6.14238 1.776018,-13.30062 13.28125,-17.875 7.839517,-3.11688 9.75,-4.70604 9.75,-8.15625 0,-2.72826 2.097599,-5.66923 5.78125,-8.09375 5.37913,-3.54003 8.52998,-8.90017 3.5625,-6.0625 -1.52316,0.87005 -1.91306,0.06418 -1.1875,-2.5 0.58515,-2.06807 0.0889,-4.15427 -1.125,-4.625 -3.46091,-1.34219 7.98606,-10 13.21875,-10 2.5314,0 5.16596,-0.8772 5.875,-1.9375 0.70906,-1.0603 3.37833,-1.43742 5.9375,-0.84375 2.55916,0.59363 6.23896,0.29198 8.15625,-0.65625 2.6136,-1.29272 4.24826,-0.87306 6.5625,1.625 1.94568,2.10015 4.57163,2.98455 7.09375,2.375 3.30156,-0.79792 4,-0.16344 4,3.71875 0,3.24359 1.44325,5.33453 4.65625,6.6875 4.32678,1.82204 4.57888,2.65027 3.625,11.96875 -1.42588,13.9292 -4.19662,17.60773 -12.71875,16.6875 -4.88167,-0.52671 -9.22433,0.59584 -15.625,4.0625 -4.87726,2.64159 -8.875,3.89496 -8.875,2.78125 0,-4.39804 9.10344,-13.20418 16.875,-16.3125 8.68313,-3.47286 11.02804,-7.21274 4.0625,-6.5 -3.09353,0.31651 -4.5364,-0.85473 -5.65625,-4.59375 -2.62271,-8.75706 -9.70809,-13.33934 -15.5,-10.03125 -1.87544,1.07123 -1.15164,1.96347 2.6875,3.3125 2.88258,1.01288 5.25,3.15741 5.25,4.78125 0,2.36411 -1.31898,2.75991 -6.59375,1.96875 -4.14793,-0.6221 -7.89445,-0.0624 -10.125,1.5 -3.30274,2.31315 -3.19679,2.47832 1.75,2.53125 6.22394,0.0665 6.94935,2.69544 1.46875,5.40625 -4.60607,2.27822 -5.0992,5.34375 -0.84375,5.34375 5.97067,0 1.69817,6.27895 -7.375,10.8125 -9.26515,4.62983 -20.75,13.63383 -20.75,16.28125 0,0.79729 4.146724,1.45373 9.1875,1.46875 8.83965,0.0264 15.97742,2.28497 13.75,4.34375 -0.59248,0.54757 -7.94612,1.79826 -16.34375,2.78125 -27.495805,3.21874 -43.693934,14.02027 -55.21875,36.78125 -4.559746,9.00561 -5.914281,14.40791 -6.5,26.0625 -0.706527,14.05975 -0.618897,14.40443 1.78125,7.6875 3.209142,-8.98122 6.341761,-9.93174 8.0625,-2.4375 3.176187,13.83402 12.887112,38.90472 16.5625,42.75 3.509984,3.67232 3.816046,3.73601 2.65625,0.59375 -2.073885,-5.61879 -3.490155,-16.9375 -2.125,-16.9375 0.680478,0 8.605237,3.68006 17.625,8.1875 13.012904,6.50252 18.882904,8.39532 28.4375,9.09375 l 12.03125,0.875 -6.4375,-3.8125 c -8.57066,-5.05006 -6.77134,-6.72135 16.03125,-15.0625 17.71155,-6.47877 23.87508,-9.96875 17.5625,-9.96875 -1.65451,0 -3.03125,-0.88436 -3.03125,-1.9375 0,-3.58643 38.53212,-43.61337 46.6875,-48.5 10.83111,-6.49064 19.4622,-6.43309 26.625,0.1875 14.41605,13.32357 6.50919,43.43833 -14.375,54.75 -10.84291,5.8726 -45.07396,17.29623 -47.5625,15.875 -1.05597,-0.60317 -0.0823,-3.66836 2.25,-7.15625 6.41246,-9.5892 0.5862,-7.50872 -11.625,4.15625 -5.90399,5.63979 -15.81699,17.86962 -22.03125,27.1875 -6.21387,9.31786 -14.22442,20.28669 -17.8125,24.375 -9.500327,10.82638 -8.284447,12.70347 3.5,5.3125 3.69702,-2.31873 13.31793,-9.05101 21.375,-14.96875 14.95088,-10.98055 30.22236,-18.68984 41.46875,-20.90625 9.32808,-1.83808 5.57529,-4.5 -6.3125,-4.5 -20.952,0 -13.71338,-5.62054 16.875,-13.125 23.22424,-5.69752 31.60094,-9.58237 40.5625,-18.75 11.85987,-12.13279 13.94537,-17.18916 13.9375,-34.09375 -0.0101,-23.34457 -8.00115,-34.43822 -26.5,-36.78125 -17.55582,-2.22395 -23.08761,0.77677 -52.59375,28.59375 -32.32266,30.47198 -43.29889,36.69851 -64.46875,36.6875 -21.069972,-0.0107 -31.59375,-8.49239 -31.59375,-25.5 0,-9.11887 4.620126,-20.84375 8.21875,-20.84375 0.981257,0 2.606122,1.33775 3.59375,2.96875 1.608818,2.65693 1.916836,2.5888 3.03125,-0.65625 1.47338,-4.29036 8.393725,-10.482 10.03125,-8.96875 0.629882,0.58217 0.127393,3.93035 -1.125,7.4375 -3.635512,10.18066 -1.250675,11.17367 4.03125,1.6875 4.669938,-8.38662 13.57972,-15.30167 16.375,-12.71875 0.74363,0.6873 -0.0732,5.48459 -1.78125,10.65625 -5.96808,18.06941 -5.40511,20.37606 1.71875,7.125 3.86179,-7.18333 9.80092,-15.0586 13.28125,-17.625 7.66735,-5.65426 38.05368,-17.06554 40.1875,-15.09375 0.84519,0.78114 -1.13133,6.08224 -4.375,11.78125 -3.24367,5.69894 -5.51082,10.67926 -5.0625,11.09375 0.44833,0.41434 3.76026,-1.97169 7.375,-5.3125 4.36595,-4.03506 8.8981,-11.67329 13.5,-22.78125 3.80965,-9.19594 7.89059,-17.01399 9.0625,-17.375 1.39088,-0.42848 2.125,2.9243 2.125,9.65625 0,12.74863 3.25557,11.00412 5.65625,-3.03125 1.52199,-8.89786 0.74013,-18.85496 -2.78125,-35.96875 -1.85649,-9.02213 2.55619,-9.02213 8.46875,0 l 4.375,6.6875 -1.125,-6.21875 C 196.835,98.95733 190.98382,88.58586 182,78.5625 c -8.5447,-9.53335 -9.24447,-11.40574 -4.75,-13 4.98391,-1.76754 12.14951,3.03746 22.375,15.0625 5.31818,6.25437 10.07701,10.97741 10.59375,10.5 0.51681,-0.47764 -0.89769,-4.22073 -3.15625,-8.3125 -4.14761,-7.5139 -4.56412,-11.69779 -0.9375,-9.34375 1.08492,0.70419 6.24534,6.11513 11.46875,12 12.09583,13.62796 26.4958,27.625 28.40625,27.625 0.81207,0 -3.39164,-7.01113 -9.34375,-15.59375 -5.95188,-8.58246 -14.16405,-20.42779 -18.25,-26.3125 -7.36878,-10.61325 -7.08042,-15.005 0.5625,-8.65625 2.18746,1.81709 11.42497,12.50204 20.53125,23.75 18.91964,23.36974 28.21545,33.30948 33.84375,36.09375 2.83044,1.4 1.91995,-0.501 -3.21875,-6.78125 -9.72841,-11.88976 -39.40432,-54.24704 -41.09375,-58.65625 -3.07449,-8.0256 13.2126,9.47464 30.46875,32.75 18.74267,25.27941 37.49976,45.22494 47.6875,50.71875 8.29617,4.47394 7.45696,1.49801 -1.9375,-6.875 -7.53568,-6.71637 -22.34553,-26.62043 -49.96875,-67.09375 -15.93324,-23.34536 -38.95508,-45.30359 -55,-52.46875 C 190.97638,9.8132925 181.45502,7.7914361 172.09375,7.8125 Z M 66.40625,85.53125 c 0.976703,-0.05629 1.6875,0.365499 1.6875,1.4375 0,2.94322 -4.024036,6.65982 -6,5.53125 -0.845032,-0.48267 -1.066338,-2.01095 -0.5,-3.375 0.860448,-2.072369 3.184661,-3.499941 4.8125,-3.59375 z m -5.53125,18.75 c 4.252061,-0.0713 4.336166,3.13827 0.1875,7.375 C 57.078797,115.72466 50.75,115.93814 50.75,112 c 0,-3.50078 5.427062,-7.63979 10.125,-7.71875 z"
         transform="translate(0,652.36)"
         id="path3026"
         inkscape:connector-curvature="0" />
      <g
         transform="matrix(9.7221011,0,0,7.2184896,-468.3991,-360.14566)"
         style="font-style:normal;font-variant:normal;font-weight:normal;font-stretch:normal;font-size:40px;line-height:125%;font-family:'Standard Symbols L';-inkscape-font-specification:'Standard Symbols L';text-align:start;letter-spacing:0px;word-spacing:0px;writing-mode:lr-tb;text-anchor:start;fill:#000000;fill-opacity:1;stroke:none"
         id="flowRoot2987">
        <path
           d="m 69.4375,171.67547 c 0.28,-2.28 1.440002,-3.6 3.24,-3.6 1.279999,0 2.360001,1 2.96,2.8 0.28,0.79999 0.64,2.12 1,3.64 l -9.24,19.96 3.76,0 6.8,-14.32 c 1.279999,7.79999 1.920001,10.64 2.64,12.2 0.879999,1.71999 2.160001,2.64 3.64,2.64 1.559998,0 2.800001,-0.96001 3.48,-2.72 0.44,-1.08 0.6,-2.16001 0.64,-4.04 l -0.84,0 c -0.32,2.07999 -1.240001,3.24 -2.68,3.24 -1.199999,0 -2.240001,-0.76001 -2.88,-2.16 -0.519999,-1.04 -0.800001,-2.08001 -1.36,-5.04 l -1.08,-5.16 c -0.04,-0.12 -0.08,-0.40001 -0.16,-0.8 -0.919999,-5.16 -2.360001,-10.04001 -3.32,-11.48 -0.879999,-1.28 -2.080001,-1.96 -3.4,-1.96 -2.439998,0 -3.72,2.08 -4.16,6.8 l 0.96,0"
           id="path2994"
           inkscape:connector-curvature="0" />
      </g>
    </g>
    <text
       sodipodi:linespacing="125%"
       id="text9762"
       y="952.83911"
       x="121.94651"
       style="font-style:normal;font-variant:normal;font-weight:normal;font-stretch:normal;font-size:45.48402405px;line-height:125%;font-family:'Latin Modern Mono Caps';-inkscape-font-specification:'Latin Modern Mono Caps, Normal';text-align:start;letter-spacing:0px;word-spacing:0px;writing-mode:lr-tb;text-anchor:start;fill:#000000;fill-opacity:1;stroke:none;stroke-width:1px;stroke-linecap:butt;stroke-linejoin:miter;stroke-opacity:1"
       xml:space="preserve"><tspan
         id="tspan9766"
         y="952.83911"
         x="121.94651"
         sodipodi:role="line">Functional Programming</tspan></text>
    <text
       sodipodi:linespacing="125%"
       id="text9770"
       y="1021.2687"
       x="220.30429"
       style="font-style:normal;font-variant:normal;font-weight:normal;font-stretch:normal;font-size:87.37992096px;line-height:125%;font-family:'Latin Modern Mono Caps';-inkscape-font-specification:'Latin Modern Mono Caps, Normal';text-align:start;letter-spacing:0px;word-spacing:0px;writing-mode:lr-tb;text-anchor:start;fill:#000000;fill-opacity:1;stroke:none;stroke-width:1px;stroke-linecap:butt;stroke-linejoin:miter;stroke-opacity:1"
       xml:space="preserve"><tspan
         y="1021.2687"
         x="220.30429"
         id="tspan9772"
         sodipodi:role="line">Brno</tspan></text>
    <path
       style="fill:#484444"
       inkscape:connector-curvature="0"
       d="m -5.9873197,1492.7204 0.023,-0.061 c -0.034,-0.154 -0.046,-0.189 -0.023,0.061 z"
       id="path4599" />
    <g
       id="g8854">
      <g
         transform="matrix(0.2876923,0,0,0.2876923,1201.1805,687.12879)"
         id="g8755">
        <g
           cx="200"
           cy="70"
           rx="85"
           ry="55"
           id="g4675"
           style="fill:url(#linearGradient8699);fill-opacity:1"
           transform="matrix(0.36764706,0,0,0.36764706,-1118.3096,1036.2616)">
          <path
             d="M 30,80 C 30,80 330,50 330,0 l 0,120 c 0,0 0,50 -300,80 0,237.79402 0,-17.7273 0,-120 z"
             transform="matrix(1,0,0,-1,0,280)"
             id="path4677"
             inkscape:connector-curvature="0"
             style="fill:url(#linearGradient8710);fill-opacity:1"
             sodipodi:nodetypes="ccccc" />
          <path
             d="M 30,80 C 30,80 330,50 330,0 l 0,120 c 0,0 0,50 -300,80 0,237.79402 0,-17.7273 0,-120 z"
             transform="matrix(1,0,0,-1,0,440)"
             id="path4679"
             inkscape:connector-curvature="0"
             style="fill:url(#linearGradient8712);fill-opacity:1"
             sodipodi:nodetypes="ccccc" />
        </g>
        <g
           cx="200"
           cy="70"
           rx="85"
           ry="55"
           id="g4681"
           transform="matrix(0.36764706,0,0,0.36764706,-1118.3096,1036.2616)">
          <path
             d="M 30,80 C 30,80 330,50 330,0 l 0,120 c 0,0 0,50 -300,80 0,237.79402 0,-17.7273 0,-120 z"
             id="path4683"
             inkscape:connector-curvature="0"
             sodipodi:nodetypes="ccccc" />
          <path
             d="m 30,240 c 0,0 300,-30 300,-80 l 0,120 c 0,0 0,50 -300,80 0,237.79402 0,-17.7273 0,-120 z"
             id="path4685"
             inkscape:connector-curvature="0"
             sodipodi:nodetypes="ccccc" />
          <path
             d="m 30,400 c 0,0 300,-30 300,-80 l 0,120 c 0,0 0,50 -300,80 0,237.79402 0,-17.7273 0,-120 z"
             id="path4687"
             inkscape:connector-curvature="0"
             sodipodi:nodetypes="ccccc" />
        </g>
      </g>
      <g
         transform="matrix(0.1616904,0,0,0.1616904,649.75279,914.47105)"
         style="clip-rule:nonzero;fill-opacity:1"
         clip-path="url(#clip1-2)"
         id="g4578">
        <path
           inkscape:connector-curvature="0"
           style="fill-opacity:1;fill-rule:nonzero"
           d="M 0,340.15625 113.38672,170.07812 0,0 85.039062,0 198.42578,170.07812 85.039062,340.15625 0,340.15625 Z m 0,0"
           id="path4580" />
        <path
           inkscape:connector-curvature="0"
           style="fill-opacity:1;fill-rule:nonzero"
           d="M 113.38672,340.15625 226.77344,170.07812 113.38672,0 l 85.03906,0 226.76953,340.15625 -85.03906,0 -70.86328,-106.29688 -70.86719,106.29688 -85.03906,0 z m 0,0"
           id="path4582" />
        <path
           inkscape:connector-curvature="0"
           style="fill-opacity:1;fill-rule:nonzero"
           d="m 387.40234,240.94531 -37.79297,-56.6914 132.28125,-0.004 0,56.69531 -94.48828,0 z m 0,0"
           id="path4584" />
        <path
           inkscape:connector-curvature="0"
           style="fill-opacity:1;fill-rule:nonzero"
           d="m 330.71094,155.90625 -37.79688,-56.691406 188.97656,-0.0039 0,56.695316 -151.17968,0 z m 0,0"
           id="path4586" />
      </g>
      <g
         transform="matrix(0.38121288,0,0,0.38121288,796.08393,382.74869)"
         id="g8674">
        <path
           inkscape:connector-curvature="0"
           d="m -5.98732,1492.7204 0.023,-0.061 c -0.034,-0.154 -0.046,-0.189 -0.023,0.061 z"
           id="path4610" />
        <path
           id="path4619"
           d="m -4.87532,1533.4934 c -0.584,-1.213 -1.316,-3.589 -1.799,-4.633 -0.459,-0.978 -1.854,-3.524 -2.553,-4.34 -1.52,-1.779 -1.875,-1.913 -2.322,-4.159 -0.777,-3.911 -2.834,-11.004 -5.258,-15.899 -1.252,-2.526 -3.334,-4.648 -5.24,-6.48 -1.664,-1.607 -5.414,-4.312 -6.068,-4.177 -6.125,1.223 -8.025,7.23 -10.906,11.989 -1.594,2.632 -3.283,4.871 -4.539,7.671 -1.16,2.575 -1.057,5.426 -3.043,7.637 -2.037,2.27 -3.361,4.684 -4.359,7.617 -0.189,0.557 -0.726,6.408 -1.309,7.794 0,10e-4 -10e-4,0 -10e-4,0 l 9.104,-0.641 c 8.482,0.578 6.033,3.829 19.273,3.121 l 20.906,-0.647 0,0 c -0.65,-1.916 -1.542,-4.134 -1.886,-4.856 z"
           inkscape:connector-curvature="0" />
        <path
           inkscape:connector-curvature="0"
           d="m 55.78868,1394.8194 -123.83,0 c -11.518,0 -20.855,9.339 -20.855,20.857 l 0,45.476 0,0.031 c 2.984,-1.079 7.276,-7.428 8.621,-8.972 2.353,-2.7 2.78,-6.144 3.952,-8.313 2.669,-4.94 3.128,-8.337 9.195,-8.337 2.828,0 3.951,0.652 5.864,3.219 1.331,1.785 3.63,5.083 4.706,7.287 1.242,2.544 3.266,5.986 4.156,6.681 0.659,0.516 1.312,0.903 1.923,1.132 0.984,0.369 1.798,-0.308 2.456,-0.832 0.84,-0.669 1.202,-2.032 1.979,-3.85 1.122,-2.623 2.343,-5.766 3.038,-6.863 1.203,-1.896 1.613,-4.146 2.912,-5.236 1.916,-1.607 4.416,-1.72 5.104,-1.856 3.849,-0.76 5.599,1.856 7.495,3.546 1.241,1.108 2.937,3.34 4.141,6.331 0.941,2.336 2.139,4.497 2.64,5.846 0.484,1.302 1.679,3.389 2.387,5.891 0.643,2.272 2.364,4.013 3.018,5.093 0,0 1.001,2.804 7.088,5.367 1.32,0.556 3.988,1.46 5.58,2.039 2.645,0.961 5.207,0.836 8.469,0.445 2.326,0 3.586,-3.368 4.643,-6.065 0.625,-1.594 1.224,-6.162 1.632,-7.459 0.395,-1.262 -0.529,-2.238 0.258,-3.344 0.92,-1.291 1.467,-1.361 1.998,-3.044 1.141,-3.604 7.736,-3.786 11.443,-3.786 3.09,0 2.697,3 7.939,1.974 3.002,-0.589 5.895,0.387 9.082,1.231 2.684,0.712 5.207,1.523 6.719,3.293 0.979,1.146 3.406,6.888 0.932,7.133 0.238,0.291 0.412,0.816 0.857,1.103 -0.551,2.166 -2.949,0.623 -4.281,0.345 -1.795,-0.372 -3.062,0.056 -4.818,0.833 -3.002,1.337 -7.393,1.181 -10.008,3.359 -2.219,1.846 -2.215,5.967 -3.25,8.276 0,0 -2.873,7.394 -9.146,11.918 -1.607,1.16 -4.748,3.95 -11.58,5.005 -3.066,0.474 -5.934,0.513 -9.082,0.356 -1.541,-0.074 -2.994,-0.153 -4.539,-0.173 -0.91,-0.01 -3.963,-0.104 -3.812,0.188 l -0.34,0.848 c 0.053,0.279 0.164,0.976 0.195,1.144 0.125,0.685 0.16,1.231 0.186,1.86 0.047,1.295 -0.107,2.645 -0.041,3.952 0.137,2.711 1.143,5.182 1.27,7.917 0.139,3.045 1.645,6.267 3.102,8.754 0.553,0.947 1.395,1.055 1.762,2.221 0.43,1.336 0.023,2.753 0.232,4.177 0.82,5.521 2.41,11.292 4.896,16.275 0.017,0.041 0.037,0.086 0.058,0.123 0,0 0,10e-4 10e-4,0 3.07,-0.516 6.146,-1.62 10.135,-2.21 7.314,-1.085 17.486,-0.526 24.02,-1.138 16.533,-1.554 25.506,6.781 40.355,3.365 l 0,-122.557 c -0.002,-11.519 -9.336,-20.858 -20.857,-20.858 z m -61.776,97.901 c -0.023,-0.25 -0.012,-0.215 0.023,-0.061 l -0.023,0.061 z"
           id="path4630" />
        <path
           id="path4639"
           d="m -50.73132,1511.8724 c 1.154,-2.518 1.82,-5.385 2.775,-7.96 0.916,-2.471 2.346,-5.963 4.785,-7.207 -0.297,-0.347 -5.096,-0.506 -6.377,-0.634 -1.428,-0.145 -2.754,-0.308 -4.141,-0.588 -2.59,-0.523 -5.42,-1.031 -7.971,-1.642 -1.549,-0.375 -6.709,-2.202 -7.83,-2.717 -2.629,-1.212 -4.375,-4.505 -6.43,-4.166 -1.312,0.214 -2.59,0.664 -3.406,1.987 -0.666,1.079 -0.893,2.933 -1.354,4.178 -0.535,1.444 -1.459,2.792 -2.268,4.168 -1.488,2.524 -4.166,4.807 -5.32,7.266 -0.232,0.506 -0.438,1.072 -0.631,1.662 l 0,0.284 0,9.15 0,16.321 0,2.358 c 1.346,0.23 2.754,0.513 4.33,0.934 11.631,3.104 14.469,3.366 25.877,2.062 l 1.07,-0.142 0,-10e-4 c 0.873,-1.818 1.547,-8.003 2.113,-9.918 0.441,-1.468 1.047,-2.638 1.277,-4.137 0.217,-1.424 -0.02,-2.781 -0.143,-4.075 -0.317,-3.242 2.365,-4.4 3.644,-7.183 z"
           inkscape:connector-curvature="0" />
      </g>
      <g
         transform="matrix(0.21999999,0,0,0.21999999,601.44335,916.78877)"
         id="g8457">
        <path
           id="path4558"
           d="m 264.97623,436.20231 125.00001,-125 0,62.5 -62.5,62.5 62.5,62.5 0,62.50001 -125.00001,-125.00001 z"
           inkscape:connector-curvature="0" />
        <path
           id="path4560"
           d="m 345.33338,436.20231 44.64286,-44.64286 0,89.28572 -44.64286,-44.64286 z"
           inkscape:connector-curvature="0" />
        <path
           id="path4562"
           d="m 528.3691,436.20231 -129.46429,-125 0,62.5 62.5,62.5 -62.5,62.5 0,62.50001 129.46429,-125.00001 z"
           inkscape:connector-curvature="0" />
      </g>
      <g
         transform="matrix(0.29344292,0,0,0.29344292,627.65031,585.41719)"
         id="g8482">
        <path
           id="path10"
           d="m 839.83058,1291.733 c -18.80333,-19.9249 -29.80499,-47.4512 -29.77711,-80.294 -0.026,-29.0452 9.10004,-54.0109 24.78891,-73.0082 l -0.0254,0.01 -32.97584,0 0,153.2959 37.96594,0 0.0235,0 0,0 z"
           inkscape:connector-curvature="0" />
        <path
           id="path12"
           d="m 1013.5,1291.7457 c 8.1001,-8.6755 15.3581,-18.8927 21.9349,-30.5774 l -36.49906,-18.2495 c -12.81837,20.8393 -31.56404,40.0209 -57.48594,40.1489 -37.72641,-0.128 -52.54907,-32.3878 -52.46732,-73.9105 l 140.97742,0 c 0.1882,-4.6879 0.1882,-6.8677 0,-9.1241 0.9201,-24.7034 -5.6269,-45.4679 -17.5366,-61.6384 l -0.062,0.046 31.7414,0 0,153.2958 -30.6724,0 0.069,0.01 0,0 z"
           inkscape:connector-curvature="0" />
        <path
           id="path14"
           d="m 891.2644,1173.5706 c 1.56071,-18.7995 16.38273,-31.4423 33.76158,-31.4804 17.49735,0.038 30.13957,12.6809 30.56792,31.4804 l -64.3295,0 0,0 z"
           inkscape:connector-curvature="0" />
      </g>
      <g
         transform="matrix(0.23772069,0,0,0.23772069,584.26519,871.43408)"
         id="g8462">
        <path
           inkscape:connector-curvature="0"
           d="m 876.42231,596.56076 c -1.15,2.492 -2.419,5.292 -3.733,8.272 -4.645,10.524 -9.789,23.33 -11.668,31.534 -0.675,2.922 -1.093,6.543 -1.085,10.558 0,1.588 0.085,3.257 0.22,4.957 6.567,2.413 13.66,3.74 21.067,3.753 6.743,-0.013 13.221,-1.127 19.284,-3.143 -1.425,-1.303 -2.785,-2.692 -4.023,-4.257 -8.22,-10.482 -12.806,-25.844 -20.062,-51.674"
           id="path10-2" />
        <path
           inkscape:connector-curvature="0"
           d="m 846.07431,544.48276 c -15.699,11.064 -25.972,29.312 -26.011,49.992 0.039,20.371 10.003,38.383 25.307,49.493 3.754,-15.637 13.164,-29.955 27.275,-58.655 -0.838,-2.302 -1.793,-4.822 -2.862,-7.469 -3.909,-9.806 -9.551,-21.194 -14.586,-26.351 -2.567,-2.694 -5.682,-5.022 -9.123,-7.01"
           id="path12-3" />
        <path
           inkscape:connector-curvature="0"
           d="m 934.49831,664.62476 c -8.1,-1.015 -14.785,-2.24 -20.633,-4.303 -9.836,4.884 -20.913,7.643 -32.642,7.643 -40.584,0 -73.483,-32.894 -73.488,-73.49 0,-22.027 9.704,-41.773 25.056,-55.24 -4.106,-0.992 -8.388,-1.571 -12.762,-1.563 -21.562,0.203 -44.323,12.136 -53.799,44.363 -0.886,4.691 -0.675,8.238 -0.675,12.442 0,63.885 51.791,115.676 115.671,115.676 39.122,0 73.682,-19.439 94.611,-49.169 -11.32,2.821 -22.206,4.17 -31.528,4.199 -3.494,0 -6.774,-0.187 -9.811,-0.558"
           id="path14-1" />
        <path
           inkscape:connector-curvature="0"
           d="m 912.76231,642.21076 c 0.714,0.354 2.333,0.932 4.586,1.571 15.157,-11.127 25.007,-29.05 25.046,-49.307 l -0.006,0 c -0.057,-33.771 -27.386,-61.096 -61.165,-61.163 -6.714,0.013 -13.164,1.121 -19.203,3.122 12.419,14.156 18.391,34.386 24.168,56.515 0.003,0.01 0.008,0.018 0.01,0.026 0.011,0.018 1.848,6.145 5.002,14.274 3.132,8.118 7.594,18.168 12.46,25.492 3.195,4.908 6.709,8.435 9.102,9.47"
           id="path16" />
        <path
           inkscape:connector-curvature="0"
           d="m 881.22631,478.79876 c -38.744,0 -73.016,19.073 -94.008,48.318 10.925,-6.842 22.08,-9.31 31.815,-9.222 13.446,0.039 24.017,4.208 29.089,7.06 1.225,0.706 2.388,1.466 3.527,2.247 9.05,-3.986 19.05,-6.215 29.574,-6.215 40.589,0.005 73.493,32.899 73.499,73.488 l -0.006,0 c 0,20.464 -8.37,38.967 -21.863,52.291 3.312,0.371 6.844,0.602 10.451,0.584 12.811,0.006 26.658,-2.821 37.039,-11.552 6.769,-5.702 12.44,-14.051 15.585,-26.569 0.615,-4.835 0.969,-9.75 0.969,-14.752 0,-63.882 -51.786,-115.678 -115.671,-115.678"
           id="path18" />
      </g>
    </g>
  </g>
</svg>
