<?xml version="1.0" encoding="UTF-8" standalone="no"?>
<!-- Created with Inkscape (http://www.inkscape.org/) -->

<svg
   xmlns:dc="http://purl.org/dc/elements/1.1/"
   xmlns:cc="http://creativecommons.org/ns#"
   xmlns:rdf="http://www.w3.org/1999/02/22-rdf-syntax-ns#"
   xmlns:svg="http://www.w3.org/2000/svg"
   xmlns="http://www.w3.org/2000/svg"
   xmlns:sodipodi="http://sodipodi.sourceforge.net/DTD/sodipodi-0.dtd"
   xmlns:inkscape="http://www.inkscape.org/namespaces/inkscape"
   id="svg2"
   sodipodi:docname="FPB.svg"
   viewBox="0 0 400 400"
   version="1.1"
   inkscape:version="0.48.5 r10040"
   width="100%"
   height="100%"
   inkscape:export-filename="/home/mkollar/FPB.png"
   inkscape:export-xdpi="300"
   inkscape:export-ydpi="300">
  <defs
     id="defs10" />
  <sodipodi:namedview
     id="base"
     bordercolor="#666666"
     inkscape:pageshadow="2"
     inkscape:window-y="0"
     pagecolor="#ffffff"
     inkscape:window-height="1078"
     inkscape:window-maximized="0"
     inkscape:zoom="1.4"
     inkscape:window-x="1920"
     showgrid="false"
     borderopacity="1.0"
     inkscape:current-layer="layer1"
     inkscape:cx="203.07495"
     inkscape:cy="222.72959"
     inkscape:window-width="958"
     inkscape:pageopacity="0.0"
     inkscape:document-units="px" />
  <g
     id="layer1"
     inkscape:label="Livello 1"
     inkscape:groupmode="layer"
     transform="translate(0 -652.36)">
    <g
       id="g2993">
      <path
         id="path3026"
         transform="translate(0,652.36)"
         d="M 172.09375 7.8125 C 156.49164 7.8476064 141.33474 13.588625 128.3125 24.8125 C 116.77117 34.76035 115.95467 38.46833 126.15625 34.5625 C 129.49029 33.28614 136.14269 32.25 140.96875 32.25 C 148.42877 32.25 150.5869 33.1112 155.34375 38.03125 C 159.755 42.59414 160.8089 45.21137 160.34375 50.375 C 159.77626 56.67444 159.50191 56.89656 153.03125 56.40625 C 144.63283 55.76987 141.93858 53.52797 145.21875 49.875 C 148.28112 46.46467 145.80981 46.24919 134.96875 49.03125 C 126.45314 51.21659 124.30285 50.25671 128.125 46 C 130.53182 43.3198 130.30064 43.16843 125.96875 44.40625 C 123.32385 45.16197 116.39924 48.88823 110.5625 52.6875 C 104.65514 56.53285 99.641685 58.74093 99.25 57.65625 C 98.863459 56.58454 101.78817 49.30302 105.75 41.5 C 109.71184 33.69729 112.58197 26.98486 112.125 26.5625 C 111.66806 26.14019 108.08563 30.38152 104.1875 36 C 94.625828 49.77975 88.007175 57.15865 86.46875 55.75 C 85.768656 55.10917 87.006525 49.18229 89.21875 42.5625 C 93.802171 28.84803 93.344841 25.34224 88.46875 36.78125 C 83.072151 49.44179 71.004198 66.96465 59.875 78.3125 C 54.102917 84.19753 47.649548 92.71516 45.5 97.21875 C 41.621219 105.3466 34.462068 111.48241 26.125 113.875 C 23.737138 114.56018 21.78125 116.21329 21.78125 117.53125 C 21.78125 119.88419 32.352377 129.15625 35.03125 129.15625 C 35.782254 129.15625 37.931784 126.75501 39.8125 123.8125 C 43.400821 118.19827 50.75 116.43561 50.75 121.1875 C 50.75 126.4596 38.767545 145.73938 30.3125 154.09375 C 22.522848 161.79036 22.182733 162.46686 26.59375 161.6875 C 35.432614 160.12595 32.553358 166.38037 16.71875 183 C 13.270193 186.61954 9.0293853 192.22202 7.3125 195.46875 C 4.9479976 199.93939 8.0717608 197.69991 20.21875 186.21875 C 37.066705 170.29416 37.944689 168.81904 46.90625 140.1875 C 50.112639 129.94313 52.628286 125.64985 58.71875 120.1875 C 67.221772 112.5612 73.235706 109.99088 76.1875 112.71875 C 79.005586 115.32322 74.698298 121.7744 69.28125 123.03125 C 66.79932 123.60697 62.897008 126.37809 60.625 129.21875 L 56.5 134.40625 L 60.84375 137 C 63.240814 138.43303 67.686024 140.18538 70.71875 140.875 C 75.881203 142.04896 76.087045 141.86275 74.03125 138.3125 C 70.47439 132.17012 75.807268 125.01188 87.3125 120.4375 C 95.152017 117.32062 97.0625 115.73146 97.0625 112.28125 C 97.0625 109.55299 99.160099 106.61202 102.84375 104.1875 C 108.22288 100.64747 111.37373 95.28733 106.40625 98.125 C 104.88309 98.99505 104.49319 98.18918 105.21875 95.625 C 105.8039 93.55693 105.30763 91.47073 104.09375 91 C 100.63284 89.65781 112.07981 81 117.3125 81 C 119.8439 81 122.47846 80.1228 123.1875 79.0625 C 123.89656 78.0022 126.56583 77.62508 129.125 78.21875 C 131.68416 78.81238 135.36396 78.51073 137.28125 77.5625 C 139.89485 76.26978 141.52951 76.68944 143.84375 79.1875 C 145.78943 81.28765 148.41538 82.17205 150.9375 81.5625 C 154.23906 80.76458 154.9375 81.39906 154.9375 85.28125 C 154.9375 88.52484 156.38075 90.61578 159.59375 91.96875 C 163.92053 93.79079 164.17263 94.61902 163.21875 103.9375 C 161.79287 117.8667 159.02213 121.54523 150.5 120.625 C 145.61833 120.09829 141.27567 121.22084 134.875 124.6875 C 129.99774 127.32909 126 128.58246 126 127.46875 C 126 123.07071 135.10344 114.26457 142.875 111.15625 C 151.55813 107.68339 153.90304 103.94351 146.9375 104.65625 C 143.84397 104.97276 142.4011 103.80152 141.28125 100.0625 C 138.65854 91.30544 131.57316 86.72316 125.78125 90.03125 C 123.90581 91.10248 124.62961 91.99472 128.46875 93.34375 C 131.35133 94.35663 133.71875 96.50116 133.71875 98.125 C 133.71875 100.48911 132.39977 100.88491 127.125 100.09375 C 122.97707 99.47165 119.23055 100.03137 117 101.59375 C 113.69726 103.9069 113.80321 104.07207 118.75 104.125 C 124.97394 104.1915 125.69935 106.82044 120.21875 109.53125 C 115.61268 111.80947 115.11955 114.875 119.375 114.875 C 125.34567 114.875 121.07317 121.15395 112 125.6875 C 102.73485 130.31733 91.25 139.32133 91.25 141.96875 C 91.25 142.76604 95.396724 143.42248 100.4375 143.4375 C 109.27715 143.4639 116.41492 145.72247 114.1875 147.78125 C 113.59502 148.32882 106.24138 149.57951 97.84375 150.5625 C 70.347945 153.78124 54.149816 164.58277 42.625 187.34375 C 38.065254 196.34936 36.710719 201.75166 36.125 213.40625 C 35.418473 227.466 35.506103 227.81068 37.90625 221.09375 C 41.115392 212.11253 44.248011 211.16201 45.96875 218.65625 C 49.144937 232.49027 58.855862 257.56097 62.53125 261.40625 C 66.041234 265.07857 66.347296 265.14226 65.1875 262 C 63.113615 256.38121 61.697345 245.0625 63.0625 245.0625 C 63.742978 245.0625 71.667737 248.74256 80.6875 253.25 C 93.700404 259.75252 99.570404 261.64532 109.125 262.34375 L 121.15625 263.21875 L 114.71875 259.40625 C 106.14809 254.35619 107.94741 252.6849 130.75 244.34375 C 148.46155 237.86498 154.62508 234.375 148.3125 234.375 C 146.65799 234.375 145.28125 233.49064 145.28125 232.4375 C 145.28125 228.85107 183.81337 188.82413 191.96875 183.9375 C 202.79986 177.44686 211.43095 177.50441 218.59375 184.125 C 233.0098 197.44857 225.10294 227.56333 204.21875 238.875 C 193.37584 244.7476 159.14479 256.17123 156.65625 254.75 C 155.60028 254.14683 156.57392 251.08164 158.90625 247.59375 C 165.31871 238.00455 159.49245 240.08503 147.28125 251.75 C 141.37726 257.38979 131.46426 269.61962 125.25 278.9375 C 119.03613 288.25536 111.02558 299.22419 107.4375 303.3125 C 97.937173 314.13888 99.153053 316.01597 110.9375 308.625 C 114.63452 306.30627 124.25543 299.57399 132.3125 293.65625 C 147.26338 282.6757 162.53486 274.96641 173.78125 272.75 C 183.10933 270.91192 179.35654 268.25 167.46875 268.25 C 146.51675 268.25 153.75537 262.62946 184.34375 255.125 C 207.56799 249.42748 215.94469 245.54263 224.90625 236.375 C 236.76612 224.24221 238.85162 219.18584 238.84375 202.28125 C 238.83365 178.93668 230.8426 167.84303 212.34375 165.5 C 194.78793 163.27605 189.25614 166.27677 159.75 194.09375 C 127.42734 224.56573 116.45111 230.79226 95.28125 230.78125 C 74.211278 230.77055 63.6875 222.28886 63.6875 205.28125 C 63.6875 196.16238 68.307626 184.4375 71.90625 184.4375 C 72.887507 184.4375 74.512372 185.77525 75.5 187.40625 C 77.108818 190.06318 77.416836 189.99505 78.53125 186.75 C 80.00463 182.45964 86.924975 176.268 88.5625 177.78125 C 89.192382 178.36342 88.689893 181.7116 87.4375 185.21875 C 83.801988 195.39941 86.186825 196.39242 91.46875 186.90625 C 96.138688 178.51963 105.04847 171.60458 107.84375 174.1875 C 108.58738 174.8748 107.77052 179.67209 106.0625 184.84375 C 100.09442 202.91316 100.65739 205.21981 107.78125 191.96875 C 111.64304 184.78542 117.58217 176.91015 121.0625 174.34375 C 128.72985 168.68949 159.11618 157.27821 161.25 159.25 C 162.09519 160.03114 160.11867 165.33224 156.875 171.03125 C 153.63133 176.73019 151.36418 181.71051 151.8125 182.125 C 152.26083 182.53934 155.57276 180.15331 159.1875 176.8125 C 163.55345 172.77744 168.0856 165.13921 172.6875 154.03125 C 176.49715 144.83531 180.57809 137.01726 181.75 136.65625 C 183.14088 136.22777 183.875 139.58055 183.875 146.3125 C 183.875 159.06113 187.13057 157.31662 189.53125 143.28125 C 191.05324 134.38339 190.27138 124.42629 186.75 107.3125 C 184.89351 98.29037 189.30619 98.29037 195.21875 107.3125 L 199.59375 114 L 198.46875 107.78125 C 196.835 98.95733 190.98382 88.58586 182 78.5625 C 173.4553 69.02915 172.75553 67.15676 177.25 65.5625 C 182.23391 63.79496 189.39951 68.59996 199.625 80.625 C 204.94318 86.87937 209.70201 91.60241 210.21875 91.125 C 210.73556 90.64736 209.32106 86.90427 207.0625 82.8125 C 202.91489 75.2986 202.49838 71.11471 206.125 73.46875 C 207.20992 74.17294 212.37034 79.58388 217.59375 85.46875 C 229.68958 99.09671 244.08955 113.09375 246 113.09375 C 246.81207 113.09375 242.60836 106.08262 236.65625 97.5 C 230.70437 88.91754 222.4922 77.07221 218.40625 71.1875 C 211.03747 60.57425 211.32583 56.1825 218.96875 62.53125 C 221.15621 64.34834 230.39372 75.03329 239.5 86.28125 C 258.41964 109.65099 267.71545 119.59073 273.34375 122.375 C 276.17419 123.775 275.2637 121.874 270.125 115.59375 C 260.39659 103.70399 230.72068 61.34671 229.03125 56.9375 C 225.95676 48.9119 242.24385 66.41214 259.5 89.6875 C 278.24267 114.96691 296.99976 134.91244 307.1875 140.40625 C 315.48367 144.88019 314.64446 141.90426 305.25 133.53125 C 297.71432 126.81488 282.90447 106.91082 255.28125 66.4375 C 239.34801 43.09214 216.32617 21.13391 200.28125 13.96875 C 190.97638 9.8132925 181.45502 7.7914361 172.09375 7.8125 z M 66.40625 85.53125 C 67.382953 85.474964 68.09375 85.896749 68.09375 86.96875 C 68.09375 89.91197 64.069714 93.62857 62.09375 92.5 C 61.248718 92.01733 61.027412 90.48905 61.59375 89.125 C 62.454198 87.052631 64.778411 85.625059 66.40625 85.53125 z M 60.875 104.28125 C 65.127061 104.20995 65.211166 107.41952 61.0625 111.65625 C 57.078797 115.72466 50.75 115.93814 50.75 112 C 50.75 108.49922 56.177062 104.36021 60.875 104.28125 z "
         style="fill:#000000" />
      <g
         id="flowRoot2987"
         style="font-size:40px;font-style:normal;font-variant:normal;font-weight:normal;font-stretch:normal;text-align:start;line-height:125%;letter-spacing:0px;word-spacing:0px;writing-mode:lr-tb;text-anchor:start;fill:#000000;fill-opacity:1;stroke:none;font-family:Standard Symbols L;-inkscape-font-specification:Standard Symbols L"
         transform="matrix(9.7221011,0,0,7.2184896,-468.3991,-360.14566)">
        <path
           id="path2994"
           d="m 69.4375,171.67547 c 0.28,-2.28 1.440002,-3.6 3.24,-3.6 1.279999,0 2.360001,1 2.96,2.8 0.28,0.79999 0.64,2.12 1,3.64 l -9.24,19.96 3.76,0 6.8,-14.32 c 1.279999,7.79999 1.920001,10.64 2.64,12.2 0.879999,1.71999 2.160001,2.64 3.64,2.64 1.559998,0 2.800001,-0.96001 3.48,-2.72 0.44,-1.08 0.6,-2.16001 0.64,-4.04 l -0.84,0 c -0.32,2.07999 -1.240001,3.24 -2.68,3.24 -1.199999,0 -2.240001,-0.76001 -2.88,-2.16 -0.519999,-1.04 -0.800001,-2.08001 -1.36,-5.04 l -1.08,-5.16 c -0.04,-0.12 -0.08,-0.40001 -0.16,-0.8 -0.919999,-5.16 -2.360001,-10.04001 -3.32,-11.48 -0.879999,-1.28 -2.080001,-1.96 -3.4,-1.96 -2.439998,0 -3.72,2.08 -4.16,6.8 l 0.96,0"
           style="" />
      </g>
    </g>
  </g>
  <metadata
     id="metadata8">
    <rdf:RDF>
      <cc:Work>
        <dc:format>image/svg+xml</dc:format>
        <dc:type
           rdf:resource="http://purl.org/dc/dcmitype/StillImage" />
        <cc:license
           rdf:resource="http://creativecommons.org/licenses/publicdomain/" />
        <dc:publisher>
          <cc:Agent
             rdf:about="http://openclipart.org/">
            <dc:title>Openclipart</dc:title>
          </cc:Agent>
        </dc:publisher>
        <dc:title />
        <dc:date>2012-02-19T05:18:49</dc:date>
        <dc:description>Black Dragon Tatoo</dc:description>
        <dc:source>https://openclipart.org/detail/168398/black_dragon_tatoo-by-ivoermejo</dc:source>
        <dc:creator>
          <cc:Agent>
            <dc:title>ivoermejo</dc:title>
          </cc:Agent>
        </dc:creator>
        <dc:subject>
          <rdf:Bag>
            <rdf:li>Black</rdf:li>
            <rdf:li>Dragon</rdf:li>
            <rdf:li>Tatoo</rdf:li>
          </rdf:Bag>
        </dc:subject>
      </cc:Work>
      <cc:License
         rdf:about="http://creativecommons.org/licenses/publicdomain/">
        <cc:permits
           rdf:resource="http://creativecommons.org/ns#Reproduction" />
        <cc:permits
           rdf:resource="http://creativecommons.org/ns#Distribution" />
        <cc:permits
           rdf:resource="http://creativecommons.org/ns#DerivativeWorks" />
      </cc:License>
    </rdf:RDF>
  </metadata>
</svg>
