<?xml version="1.0" encoding="UTF-8" standalone="no"?>
<!-- Created with Inkscape (http://www.inkscape.org/) -->

<svg
   xmlns:dc="http://purl.org/dc/elements/1.1/"
   xmlns:cc="http://creativecommons.org/ns#"
   xmlns:rdf="http://www.w3.org/1999/02/22-rdf-syntax-ns#"
   xmlns:svg="http://www.w3.org/2000/svg"
   xmlns="http://www.w3.org/2000/svg"
   xmlns:sodipodi="http://sodipodi.sourceforge.net/DTD/sodipodi-0.dtd"
   xmlns:inkscape="http://www.inkscape.org/namespaces/inkscape"
   width="32mm"
   height="32mm"
   viewBox="0 0 113.38583 113.38583"
   id="svg2"
   version="1.1"
   inkscape:version="0.91 r13725"
   sodipodi:docname="drawing.svg">
  <defs
     id="defs4">
    <pattern
       patternUnits="objectBoundingBox"
       width="1"
       height="1"
       viewBox="-1 -1 130 130"
       patternTransform="translate(5,5.3)"
       id="pattern4153">
      <g
         id="text4861"
         style="font-style:normal;font-variant:normal;font-weight:normal;font-stretch:normal;font-size:45.00000381px;line-height:125%;font-family:'Bitstream Charter';-inkscape-font-specification:'Bitstream Charter, Normal';text-align:start;letter-spacing:0px;word-spacing:0px;writing-mode:lr-tb;text-anchor:start;fill:#000000;fill-opacity:1;stroke:none;stroke-width:1px;stroke-linecap:butt;stroke-linejoin:miter;stroke-opacity:1"
         transform="translate(-11.159942,-951.10737)">
        <path
           id="path4886"
           d="m 11.159943,987.2948 0,1.8 2.565,0.27 0.765,0.63 0,24.795 -0.765,0.63 -2.565,0.225 0,1.845 11.880001,0 c 7.650001,0 11.745001,-3.15 11.745001,-8.82 0,-4.41 -3.015,-7.155 -8.370001,-7.2 4.320001,-1.17 6.525001,-3.46499 6.525001,-6.88499 0,-4.95001 -3.42,-7.29001 -10.305001,-7.29001 l -11.475001,0 z m 7.380001,13.68 0,-11.565 c 1.125,-0.045 1.98,-0.135 2.565,-0.135 4.95,0 7.380001,1.845 7.380001,5.49001 0,4.365 -2.610001,6.25499 -8.235001,6.25499 -0.54,0 -1.125,0 -1.71,-0.045 z m 0,14.265 0,-12.015 c 1.755,-0.18 3.24,-0.27 4.41,-0.27 4.995001,0 7.425001,1.935 7.425001,6.03 0,4.545 -2.790001,6.39 -8.820001,6.39 -0.945,0 -1.935,-0.045 -3.015,-0.135 z"
           inkscape:connector-curvature="0" />
        <path
           id="path4888"
           d="m 38.183148,1017.4898 10.845001,0 0,-1.62 -3.15,-0.225 -0.765,-0.72 0,-12.87 c 1.845,-2.15999 3.42,-3.28499 4.905,-3.28499 0.945,0 1.71,0.36 2.295,1.08 l 1.44,0 0,-3.87 c -0.945,-0.405 -1.8,-0.585 -2.7,-0.585 -0.36,0 -0.765,0 -1.125,0.09 -1.62,1.305 -3.24,2.745 -4.815,4.365 l 0,-4.23 -1.71,0 -5.220001,1.62 0,1.395 3.195,0 0,16.28999 -0.81,0.72 -2.385,0.225 0,1.62 z"
           inkscape:connector-curvature="0" />
        <path
           id="path4890"
           d="m 55.409713,1017.4898 9.855,0 0,-1.62 -2.16,-0.225 -0.765,-0.72 0,-15.07499 c 1.935,-0.99 3.6,-1.485 5.040001,-1.485 3.33,0 4.545,1.35 4.545,4.63499 l 0,11.925 -0.765,0.72 -2.16,0.225 0,1.62 9.855001,0 0,-1.62 -2.430001,-0.225 -0.765,-0.72 0,-12.69 c 0,-4.49999 -2.16,-6.83999 -6.075,-6.83999 -1.935,0 -4.230001,1.035 -7.245001,2.7 l 0,-2.475 -1.71,0 -5.22,1.62 0,1.395 3.195,0 0,16.28999 -0.765,0.72 -2.43,0.225 0,1.62 z"
           inkscape:connector-curvature="0" />
        <path
           id="path4892"
           d="m 91.740889,995.39481 c -6.075,0 -10.440001,4.545 -10.440001,11.24999 0,6.66 4.410001,11.25 10.440001,11.25 6.030001,0 10.485001,-4.59 10.485001,-11.25 0,-6.65999 -4.41,-11.24999 -10.485001,-11.24999 z m 0,1.935 c 3.645,0 6.255001,3.50999 6.255001,9.31499 0,5.85 -2.610001,9.315 -6.255001,9.315 -3.6,0 -6.21,-3.51 -6.21,-9.315 0,-5.85 2.565,-9.31499 6.21,-9.31499 z"
           inkscape:connector-curvature="0" />
      </g>
      <g
         transform="translate(-11.381891,-951.10737)"
         id="text4865"
         style="font-style:normal;font-variant:normal;font-weight:normal;font-stretch:normal;font-size:5.00000048px;line-height:125%;font-family:'DejaVu Sans Mono';-inkscape-font-specification:'DejaVu Sans Mono, Normal';text-align:start;letter-spacing:0px;word-spacing:0px;writing-mode:lr-tb;text-anchor:start;fill:#7d7d7d;fill-opacity:1;stroke:none;stroke-width:1px;stroke-linecap:butt;stroke-linejoin:miter;stroke-opacity:1">
        <path
           inkscape:connector-curvature="0"
           id="path4910"
           d="m 33.302803,1026.9315 2.145996,0 0,0.4151 -1.65039,0 0,1.0742 1.496582,0 0,0.415 -1.496582,0 0,1.7407 -0.495606,0 0,-3.645 z" />
        <path
           inkscape:connector-curvature="0"
           id="path4912"
           d="m 36.715889,1027.3368 0,1.3696 0.571289,0 q 0.341797,0 0.532227,-0.1806 0.192871,-0.1807 0.192871,-0.5054 0,-0.3247 -0.19043,-0.5029 -0.190429,-0.1807 -0.534668,-0.1807 l -0.571289,0 z m -0.493164,-0.4053 1.064453,0 q 0.610352,0 0.925293,0.2783 0.314942,0.2759 0.314942,0.8106 0,0.5395 -0.314942,0.8154 -0.3125,0.2759 -0.925293,0.2759 l -0.571289,0 0,1.4648 -0.493164,0 0,-3.645 z" />
        <path
           inkscape:connector-curvature="0"
           id="path4914"
           d="m 39.65046,1028.8358 0,1.3355 0.583496,0 q 0.429688,0 0.612793,-0.149 0.183106,-0.1513 0.183106,-0.4956 0,-0.3564 -0.192872,-0.5224 -0.192871,-0.1685 -0.603027,-0.1685 l -0.583496,0 z m 0,-1.499 0,1.0986 0.57373,0 q 0.356446,0 0.515137,-0.1367 0.161133,-0.1367 0.161133,-0.4419 0,-0.2759 -0.158691,-0.3979 -0.15625,-0.1221 -0.517579,-0.1221 l -0.57373,0 z m -0.495606,-0.4053 1.079102,0 q 0.559082,0 0.861816,0.2417 0.302735,0.2417 0.302735,0.6836 0,0.3345 -0.161133,0.5274 -0.158691,0.1928 -0.478516,0.2417 0.358887,0.054 0.561524,0.3076 0.205078,0.2514 0.205078,0.6421 0,0.4956 -0.324707,0.7495 -0.324707,0.2514 -0.966797,0.2514 l -1.079102,0 0,-3.645 z" />
        <path
           inkscape:connector-curvature="0"
           id="path4916"
           d="m 44.577218,1028.4061 q -0.144043,-0.1123 -0.292968,-0.1635 -0.148926,-0.051 -0.327149,-0.051 -0.419922,0 -0.64209,0.2637 -0.222168,0.2636 -0.222168,0.7617 l 0,1.3598 -0.45166,0 0,-2.7343 0.45166,0 0,0.5346 q 0.112305,-0.2905 0.344238,-0.4443 0.234376,-0.1563 0.5542,-0.1563 0.166015,0 0.310058,0.042 0.144043,0.042 0.275879,0.1294 l 0,0.459 z" />
        <path
           inkscape:connector-curvature="0"
           id="path4918"
           d="m 47.331125,1028.8822 0,1.6943 -0.451661,0 0,-1.6943 q 0,-0.3687 -0.129394,-0.542 -0.129395,-0.1733 -0.405274,-0.1733 -0.314941,0 -0.48584,0.2246 -0.168457,0.2221 -0.168457,0.6396 l 0,1.5454 -0.449218,0 0,-2.7343 0.449218,0 0,0.4101 q 0.119629,-0.2344 0.324707,-0.354 0.205079,-0.1221 0.48584,-0.1221 0.417481,0 0.622559,0.2759 0.20752,0.2735 0.20752,0.8301 z" />
        <path
           inkscape:connector-curvature="0"
           id="path4920"
           d="m 49.276925,1028.1571 q -0.341797,0 -0.517578,0.2661 -0.175781,0.2661 -0.175781,0.7886 0,0.52 0.175781,0.7886 0.175781,0.2661 0.517578,0.2661 0.344239,0 0.52002,-0.2661 0.175781,-0.2686 0.175781,-0.7886 0,-0.5225 -0.175781,-0.7886 -0.175781,-0.2661 -0.52002,-0.2661 z m 0,-0.3809 q 0.568848,0 0.869141,0.3687 0.302734,0.3686 0.302734,1.0669 0,0.7007 -0.300293,1.0693 -0.300293,0.3662 -0.871582,0.3662 -0.568847,0 -0.86914,-0.3662 -0.300293,-0.3686 -0.300293,-1.0693 0,-0.6983 0.300293,-1.0669 0.300293,-0.3687 0.86914,-0.3687 z" />
        <path
           inkscape:connector-curvature="0"
           id="path4922"
           d="m 51.97468,1029.8319 0.615234,0 0,0.7446 -0.615234,0 0,-0.7446 z" />
        <path
           inkscape:connector-curvature="0"
           id="path4924"
           d="m 55.883372,1029.1874 q 0,-0.5054 -0.166016,-0.7666 -0.163574,-0.2637 -0.478516,-0.2637 -0.32959,0 -0.502929,0.2637 -0.17334,0.2612 -0.17334,0.7666 0,0.5053 0.17334,0.7715 0.175781,0.2636 0.507812,0.2636 0.310059,0 0.473633,-0.2661 0.166016,-0.2661 0.166016,-0.769 z m 0.449218,1.2134 q 0,0.6152 -0.290527,0.9326 -0.290527,0.3174 -0.854492,0.3174 -0.185547,0 -0.388184,-0.034 -0.202637,-0.034 -0.405273,-0.1001 l 0,-0.4444 q 0.239257,0.1123 0.43457,0.1661 0.195312,0.054 0.358887,0.054 0.363769,0 0.529785,-0.1978 0.166016,-0.1977 0.166016,-0.6274 l 0,-0.02 0,-0.3051 q -0.107422,0.2295 -0.292969,0.3418 -0.185547,0.1123 -0.45166,0.1123 -0.478516,0 -0.764161,-0.3833 -0.285644,-0.3833 -0.285644,-1.0254 0,-0.6446 0.285644,-1.0279 0.285645,-0.3833 0.764161,-0.3833 0.263671,0 0.446777,0.105 0.183105,0.105 0.297852,0.3247 l 0,-0.354 0.449218,0 0,2.5489 z" />
        <path
           inkscape:connector-curvature="0"
           id="path4926"
           d="m 57.421457,1027.8422 1.149903,0 0,2.3852 0.891113,0 0,0.3491 -2.231445,0 0,-0.3491 0.891113,0 0,-2.0361 -0.700684,0 0,-0.3491 z m 0.700684,-1.0645 0.449219,0 0,0.5689 -0.449219,0 0,-0.5689 z" />
        <path
           inkscape:connector-curvature="0"
           id="path4928"
           d="m 61.303293,1027.0658 0,0.7764 1.020508,0 0,0.3491 -1.020508,0 0,1.4844 q 0,0.3027 0.114746,0.4223 0.114747,0.1197 0.400391,0.1197 l 0.505371,0 0,0.3588 -0.549316,0 q -0.505371,0 -0.712891,-0.2026 -0.207519,-0.2026 -0.207519,-0.6982 l 0,-1.4844 -0.729981,0 0,-0.3491 0.729981,0 0,-0.7764 0.449218,0 z" />
        <path
           inkscape:connector-curvature="0"
           id="path4930"
           d="m 65.378001,1028.8822 0,1.6943 -0.451661,0 0,-1.6943 q 0,-0.3687 -0.129394,-0.542 -0.129395,-0.1733 -0.405274,-0.1733 -0.314941,0 -0.48584,0.2246 -0.168457,0.2221 -0.168457,0.6396 l 0,1.5454 -0.449218,0 0,-3.7988 0.449218,0 0,1.4746 q 0.119629,-0.2344 0.324707,-0.354 0.205079,-0.1221 0.48584,-0.1221 0.417481,0 0.622559,0.2759 0.20752,0.2735 0.20752,0.8301 z" />
        <path
           inkscape:connector-curvature="0"
           id="path4932"
           d="m 66.295971,1029.5414 0,-1.6944 0.449219,0 0,1.6944 q 0,0.3686 0.129394,0.542 0.131836,0.1733 0.405274,0.1733 0.317383,0 0.48584,-0.2222 0.168457,-0.2246 0.168457,-0.642 l 0,-1.5455 0.45166,0 0,2.7295 -0.45166,0 0,-0.4101 q -0.119629,0.2368 -0.327149,0.3589 -0.205078,0.122 -0.480957,0.122 -0.419922,0 -0.625,-0.2734 -0.205078,-0.2759 -0.205078,-0.8325 z" />
        <path
           inkscape:connector-curvature="0"
           id="path4934"
           d="m 71.06892,1029.2118 q 0,-0.5225 -0.166015,-0.7886 -0.166016,-0.2661 -0.490723,-0.2661 -0.327148,0 -0.495606,0.2686 -0.168457,0.2661 -0.168457,0.7861 0,0.5176 0.168457,0.7861 0.168458,0.2686 0.495606,0.2686 0.324707,0 0.490723,-0.2661 0.166015,-0.2661 0.166015,-0.7886 z m -1.320801,-1.0205 q 0.107422,-0.2002 0.295411,-0.3076 0.190429,-0.1075 0.439453,-0.1075 0.493164,0 0.776367,0.3809 0.283203,0.3784 0.283203,1.0449 0,0.6763 -0.285644,1.062 -0.283204,0.3833 -0.778809,0.3833 -0.244141,0 -0.432129,-0.1049 -0.185547,-0.1075 -0.297852,-0.3101 l 0,0.3442 -0.449218,0 0,-3.7988 0.449218,0 0,1.4136 z" />
        <path
           inkscape:connector-curvature="0"
           id="path4936"
           d="m 73.029369,1029.8319 0.615235,0 0,0.7446 -0.615235,0 0,-0.7446 z" />
        <path
           inkscape:connector-curvature="0"
           id="path4938"
           d="m 75.468334,1027.8422 1.149903,0 0,2.3852 0.891113,0 0,0.3491 -2.231445,0 0,-0.3491 0.891113,0 0,-2.0361 -0.700684,0 0,-0.3491 z m 0.700684,-1.0645 0.449219,0 0,0.5689 -0.449219,0 0,-0.5689 z" />
        <path
           inkscape:connector-curvature="0"
           id="path4940"
           d="m 79.355053,1028.1571 q -0.341797,0 -0.517578,0.2661 -0.175781,0.2661 -0.175781,0.7886 0,0.52 0.175781,0.7886 0.175781,0.2661 0.517578,0.2661 0.344238,0 0.52002,-0.2661 0.175781,-0.2686 0.175781,-0.7886 0,-0.5225 -0.175781,-0.7886 -0.175782,-0.2661 -0.52002,-0.2661 z m 0,-0.3809 q 0.568848,0 0.869141,0.3687 0.302734,0.3686 0.302734,1.0669 0,0.7007 -0.300293,1.0693 -0.300293,0.3662 -0.871582,0.3662 -0.568848,0 -0.869141,-0.3662 -0.300293,-0.3686 -0.300293,-1.0693 0,-0.6983 0.300293,-1.0669 0.300293,-0.3687 0.869141,-0.3687 z" />
      </g>
      <g
         id="text4869"
         style="font-style:normal;font-variant:normal;font-weight:normal;font-stretch:normal;font-size:45.00000381px;line-height:89.99999762%;font-family:'Standard Symbols L';-inkscape-font-specification:'Standard Symbols L, Normal';text-align:center;letter-spacing:0px;word-spacing:0px;writing-mode:lr-tb;text-anchor:middle;fill:#f54343;fill-opacity:1;stroke:#000000;stroke-width:0.35433072;stroke-linecap:butt;stroke-linejoin:miter;stroke-miterlimit:4;stroke-dasharray:none;stroke-opacity:1"
         transform="translate(-11.159942,-951.10737)">
        <path
           id="path4883"
           d="m 61.451659,958.93459 c 0.315,-2.565 1.620001,-4.05 3.645001,-4.05 1.44,0 2.655,1.125 3.33,3.15 0.315,0.9 0.72,2.385 1.125,4.095 l -10.395001,22.455 4.230001,0 7.65,-16.11 c 1.44,8.775 2.16,11.97 2.97,13.725 0.990001,1.935 2.430001,2.97 4.095001,2.97 1.755,0 3.15,-1.08 3.915,-3.06 0.495,-1.215 0.675,-2.43 0.72,-4.545 l -0.945,0 c -0.36,2.34 -1.395,3.645 -3.015,3.645 -1.35,0 -2.52,-0.855 -3.24,-2.43 -0.585,-1.17 -0.9,-2.34 -1.530001,-5.67 l -1.215,-5.805 c -0.045,-0.135 -0.09,-0.45 -0.18,-0.9 -1.035,-5.805 -2.655,-11.295 -3.735,-12.915 -0.99,-1.44 -2.34,-2.205 -3.825,-2.205 -2.745001,0 -4.185001,2.34 -4.680001,7.65 l 1.08,0 z"
           inkscape:connector-curvature="0" />
      </g>
      <g
         id="text4875"
         style="font-style:normal;font-variant:normal;font-weight:normal;font-stretch:normal;font-size:45.00000381px;line-height:125%;font-family:'Bitstream Charter';-inkscape-font-specification:'Bitstream Charter, Normal';text-align:start;letter-spacing:0px;word-spacing:0px;writing-mode:lr-tb;text-anchor:start;fill:#000000;fill-opacity:1;stroke:none;stroke-width:1px;stroke-linecap:butt;stroke-linejoin:miter;stroke-opacity:1"
         transform="translate(-11.159942,-951.10737)">
        <path
           id="path4880"
           d="m 37.61486,985.34674 11.385001,0 0,-1.845 -2.88,-0.225 -0.765,-0.63 0,-24.795 0.765,-0.63 2.88,-0.27 0,-1.8 -11.385001,0 0,1.8 2.88,0.27 0.765,0.63 0,24.795 -0.765,0.63 -2.88,0.225 0,1.845 z"
           inkscape:connector-curvature="0" />
      </g>

      <!--<text
         sodipodi:linespacing="125%"
         id="text4150"
         y="66.382378"
         x="-1.485"
         style="font-style:normal;font-variant:normal;font-weight:normal;font-stretch:normal;font-size:45.00000381px;line-height:125%;font-family:'Bitstream Charter';-inkscape-font-specification:'Bitstream Charter, Normal';text-align:start;letter-spacing:0px;word-spacing:0px;writing-mode:lr-tb;text-anchor:start;fill:#000000;fill-opacity:1;stroke:none;stroke-width:1px;stroke-linecap:butt;stroke-linejoin:miter;stroke-opacity:1"
         xml:space="preserve"><tspan
           y="66.382378"
           x="-1.485"
           id="tspan4152"
           sodipodi:role="line">Brno</tspan></text>
      <text
         sodipodi:linespacing="125%"
         id="text4154"
         y="79.469109"
         x="21.574011"
         style="font-style:normal;font-variant:normal;font-weight:normal;font-stretch:normal;font-size:5.00000048px;line-height:125%;font-family:'DejaVu Sans Mono';-inkscape-font-specification:'DejaVu Sans Mono, Normal';text-align:start;letter-spacing:0px;word-spacing:0px;writing-mode:lr-tb;text-anchor:start;fill:#7d7d7d;fill-opacity:1;stroke:none;stroke-width:1px;stroke-linecap:butt;stroke-linejoin:miter;stroke-opacity:1"
         xml:space="preserve"><tspan
           y="79.469109"
           x="21.574011"
           id="tspan4156"
           sodipodi:role="line">FPBrno.github.io</tspan></text>
      <text
         sodipodi:linespacing="89.999998%"
         id="text4138"
         y="33.477165"
         x="59.265347"
         style="font-style:normal;font-variant:normal;font-weight:normal;font-stretch:normal;font-size:45.00000381px;line-height:89.99999762%;font-family:'Standard Symbols L';-inkscape-font-specification:'Standard Symbols L, Normal';text-align:center;letter-spacing:0px;word-spacing:0px;writing-mode:lr-tb;text-anchor:middle;fill:#f54343;fill-opacity:1;stroke:#000000;stroke-width:0.35433072;stroke-linecap:butt;stroke-linejoin:miter;stroke-miterlimit:4;stroke-dasharray:none;stroke-opacity:1"
         xml:space="preserve"><tspan
           y="33.477165"
           x="59.265347"
           id="tspan4146"
           sodipodi:role="line">λ</tspan><tspan
           y="73.977165"
           x="59.265347"
           id="tspan4148"
           sodipodi:role="line" /></text>
      <text
         sodipodi:linespacing="125%"
         id="text4158"
         y="34.239311"
         x="24.879915"
         style="font-style:normal;font-variant:normal;font-weight:normal;font-stretch:normal;font-size:45.00000381px;line-height:125%;font-family:'Bitstream Charter';-inkscape-font-specification:'Bitstream Charter, Normal';text-align:start;letter-spacing:0px;word-spacing:0px;writing-mode:lr-tb;text-anchor:start;fill:#000000;fill-opacity:1;stroke:none;stroke-width:1px;stroke-linecap:butt;stroke-linejoin:miter;stroke-opacity:1"
         xml:space="preserve"><tspan
           y="34.239311"
           x="24.879915"
           id="tspan4160"
           sodipodi:role="line">I</tspan></text>
      -->
    </pattern>
  </defs>
  <sodipodi:namedview
     id="base"
     pagecolor="#ffffff"
     bordercolor="#666666"
     borderopacity="1.0"
     inkscape:pageopacity="0.0"
     inkscape:pageshadow="2"
     inkscape:zoom="2.8"
     inkscape:cx="39.67632"
     inkscape:cy="60.010204"
     inkscape:document-units="mm"
     inkscape:current-layer="layer1"
     showgrid="false"
     borderlayer="true"
     inkscape:window-width="1918"
     inkscape:window-height="1078"
     inkscape:window-x="1920"
     inkscape:window-y="0"
     inkscape:window-maximized="0" />
  <metadata
     id="metadata7">
    <rdf:RDF>
      <cc:Work
         rdf:about="">
        <dc:format>image/svg+xml</dc:format>
        <dc:type
           rdf:resource="http://purl.org/dc/dcmitype/StillImage" />
        <dc:title />
      </cc:Work>
    </rdf:RDF>
  </metadata>
  <g
     inkscape:label="Layer 1"
     inkscape:groupmode="layer"
     id="layer1"
     transform="translate(0,-938.97638)">
    <ellipse
       style="opacity:1;fill:none;fill-opacity:1;fill-rule:evenodd;stroke:#000000;stroke-width:1.30400002;stroke-linecap:round;stroke-linejoin:round;stroke-miterlimit:4;stroke-dasharray:none;stroke-dashoffset:0;stroke-opacity:1"
       id="path3336"
       cx="55.535713"
       cy="995.93365"
       rx="55.892857"
       ry="57.5" />
    <rect
       style="stroke:none;fill:url(#pattern4153)"
       width="91.065947"
       height="80.54333"
       x="11.159943"
       y="951.10743"
       id="rect4164" />
  </g>
</svg>
